<svg width="80" height="80" viewBox="0 0 80 80" fill="none" xmlns="http://www.w3.org/2000/svg">
<g clip-path="url(#clip0_14_3993)">
<path d="M64.375 5.15283C64.375 2.56814 62.2722 0.465332 59.6875 0.465332C57.1028 0.465332 55 2.56814 55 5.15283V10.236H64.375V5.15283Z" fill="#F8D790"/>
<path d="M32.0312 15.2551H28.9062V12.1301C28.9062 10.4042 27.5072 9.00513 25.7812 9.00513C24.0553 9.00513 22.6562 10.4042 22.6562 12.1301V15.2551H19.5312C17.8053 15.2551 16.4062 16.6542 16.4062 18.3801C16.4062 20.1059 17.8053 21.5051 19.5312 21.5051H22.6562V24.6301C22.6562 26.3561 24.0553 27.7551 25.7812 27.7551C27.5072 27.7551 28.9062 26.3561 28.9062 24.6301V21.5051H32.0312C33.7572 21.5051 35.1562 20.1059 35.1562 18.3801C35.1562 16.6542 33.7572 15.2551 32.0312 15.2551Z" fill="#F8D790"/>
<path d="M1.5625 35.236H50.3125V41.486H1.5625V35.236Z" fill="#F8D790"/>
<path d="M17.1875 55.5485C18.0504 55.5485 18.75 54.8489 18.75 53.986C18.75 53.123 18.0504 52.4235 17.1875 52.4235C16.3246 52.4235 15.625 53.123 15.625 53.986C15.625 54.8489 16.3246 55.5485 17.1875 55.5485Z" fill="#555A5F"/>
<path d="M62.8125 55.5485C63.6754 55.5485 64.375 54.8489 64.375 53.986C64.375 53.123 63.6754 52.4235 62.8125 52.4235C61.9496 52.4235 61.25 53.123 61.25 53.986C61.25 54.8489 61.9496 55.5485 62.8125 55.5485Z" fill="#555A5F"/>
<path d="M79.9858 27.2234C79.9836 27.2072 79.9811 27.1913 79.9783 27.1752C79.9691 27.1177 79.9572 27.0614 79.942 27.0063C79.9394 26.9973 79.9378 26.9883 79.935 26.9795C79.9158 26.9145 79.8922 26.8514 79.8652 26.7902C79.8606 26.78 79.8555 26.7703 79.8506 26.7603C79.8258 26.7073 79.798 26.6561 79.7675 26.6067C79.7633 26.5997 79.7602 26.5919 79.7558 26.5848L68.8183 9.39734C68.5314 8.94656 68.0342 8.67375 67.5002 8.67375H51.875V1.5625C51.875 0.699532 51.1753 0 50.3125 0H1.5625C0.699531 0 0 0.699532 0 1.5625V53.9861C0 54.8491 0.699531 55.5486 1.5625 55.5486H9.53219C10.258 59.1103 13.4147 61.7986 17.1875 61.7986C20.9603 61.7986 24.117 59.1103 24.8428 55.5486H55.1572C55.8831 59.1103 59.0397 61.7986 62.8125 61.7986C66.5853 61.7986 69.742 59.1103 70.4678 55.5486H78.4375C79.3003 55.5486 80 54.8491 80 53.9861V27.4236C80 27.3555 79.9942 27.2891 79.9858 27.2234ZM75.5911 25.8609H61.25V11.7984H66.6423L75.5911 25.8609ZM48.75 3.125V33.6736H3.125V3.125H48.75ZM3.125 36.7984H48.75V52.4234H24.8428C24.117 48.8617 20.9603 46.1734 17.1875 46.1734C13.4147 46.1734 10.258 48.8617 9.53219 52.4234H3.125V36.7984ZM17.1875 58.6734C14.6028 58.6734 12.5 56.5706 12.5 53.9859C12.5 51.4013 14.6028 49.2984 17.1875 49.2984C19.7722 49.2984 21.875 51.4013 21.875 53.9859C21.875 56.5706 19.7722 58.6734 17.1875 58.6734ZM62.8125 58.6734C60.2278 58.6734 58.125 56.5706 58.125 53.9859C58.125 51.4013 60.2278 49.2984 62.8125 49.2984C65.3972 49.2984 67.5 51.4013 67.5 53.9859C67.5 56.5706 65.3972 58.6734 62.8125 58.6734ZM70.4678 52.4234C69.7419 48.8617 66.5853 46.1734 62.8125 46.1734C59.0397 46.1734 55.883 48.8617 55.1572 52.4234H51.875V11.7984H58.125V27.4234C58.125 28.2864 58.8247 28.9859 59.6875 28.9859H76.875V52.4234H70.4678Z" fill="#555A5F"/>
<path d="M64.6077 32.0312H59.6875C58.8247 32.0312 58.125 32.7308 58.125 33.5938C58.125 34.4567 58.8247 35.1562 59.6875 35.1562H64.6077C65.4705 35.1562 66.1702 34.4567 66.1702 33.5938C66.1702 32.7308 65.4706 32.0312 64.6077 32.0312Z" fill="#555A5F"/>
</g>
<defs>
<clipPath id="clip0_14_3993">
<rect width="80" height="80" fill="white"/>
</clipPath>
</defs>
</svg>
