<svg width="31" height="31" viewBox="0 0 31 31" fill="none" xmlns="http://www.w3.org/2000/svg">
<rect width="31" height="31" rx="15.5" fill="#FFF4D4"/>
<path d="M15.5 8C11.3645 8 8 11.3645 8 15.5C8 19.6355 11.3645 23 15.5 23C19.6355 23 23 19.6355 23 15.5C23 11.3645 19.6355 8 15.5 8ZM15.5 21.6364C12.1164 21.6364 9.36364 18.8836 9.36364 15.5C9.36364 12.1165 12.1164 9.36364 15.5 9.36364C18.8836 9.36364 21.6364 12.1165 21.6364 15.5C21.6364 18.8836 18.8836 21.6364 15.5 21.6364Z" fill="#FFCC2A"/>
<path d="M15.4999 11.1818C14.9987 11.1818 14.591 11.5898 14.591 12.0913C14.591 12.5924 14.9987 13 15.4999 13C16.0011 13 16.4088 12.5924 16.4088 12.0913C16.4088 11.5898 16.0011 11.1818 15.4999 11.1818Z" fill="#FFCC2A"/>
<path d="M15.5 14.3636C15.1234 14.3636 14.8182 14.6689 14.8182 15.0455V19.1364C14.8182 19.5129 15.1234 19.8182 15.5 19.8182C15.8765 19.8182 16.1818 19.5129 16.1818 19.1364V15.0455C16.1818 14.6689 15.8765 14.3636 15.5 14.3636Z" fill="#FFCC2A"/>
</svg>
