<svg width="80" height="80" viewBox="0 0 80 80" fill="none" xmlns="http://www.w3.org/2000/svg">
<g clip-path="url(#clip0_14_3980)">
<mask id="mask0_14_3980" style="mask-type:luminance" maskUnits="userSpaceOnUse" x="0" y="0" width="80" height="80">
<path d="M0 7.62939e-06H80V80H0V7.62939e-06Z" fill="white"/>
</mask>
<g mask="url(#mask0_14_3980)">
<path fill-rule="evenodd" clip-rule="evenodd" d="M62.99 28.589C75.3662 7.15273 52.6073 -7.09274 39.9998 5.51476C27.3925 -7.09274 4.63359 7.15273 17.0098 28.589C22.7058 38.4546 34.1936 47.4996 39.9998 49.0555C45.8061 47.4996 57.2941 38.4546 62.99 28.589Z" fill="#F8D790"/>
<path d="M57.0438 58.5457L73.6533 54.5353C78.8013 53.3904 80.1386 59.5575 75.9661 61.0654C73.0977 62.0682 60.1933 67.5789 51.3094 70.9098C44.919 73.3057 42.9865 73.6262 36.2568 73.3051L26.0261 72.8173L24.1825 75.7476C23.1718 77.3539 22.7194 77.6564 20.4636 77.6562C14.8608 77.6564 9.74396 77.6564 4.14114 77.6564C2.0788 77.6564 0.879892 75.3325 1.97895 73.3556L6.63396 65.1343C15.93 48.0782 31.9938 56.439 39.884 55.71C41.5722 55.554 51.8119 54.3881 53.5005 54.2322C55.2627 54.0695 56.8336 55.4273 56.9914 57.25C57.1494 59.0726 55.7063 60.1534 54.0746 60.86C49.7957 62.7125 45.1411 64.3282 41.2369 65.245" stroke="#555A5F" stroke-width="3.125" stroke-miterlimit="2.613" stroke-linecap="round" stroke-linejoin="round"/>
<path d="M70.5986 24.9184H49.6119L44.8059 36.2211L35.1937 13.6158L30.3878 24.9184H9.40125" stroke="#555A5F" stroke-width="3.125" stroke-miterlimit="22.926" stroke-linecap="round" stroke-linejoin="round"/>
</g>
</g>
<defs>
<clipPath id="clip0_14_3980">
<rect width="80" height="80" fill="white"/>
</clipPath>
</defs>
</svg>
