<svg width="22" height="12" viewBox="0 0 22 12" fill="none" xmlns="http://www.w3.org/2000/svg">
<path d="M21.1933 4.0842L17.6458 0.50003C17.5606 0.414113 17.4592 0.345918 17.3475 0.29938C17.2358 0.252842 17.116 0.228882 16.995 0.228882C16.874 0.228882 16.7542 0.252842 16.6425 0.29938C16.5308 0.345918 16.4294 0.414113 16.3442 0.50003C16.1734 0.671779 16.0776 0.90411 16.0776 1.14628C16.0776 1.38845 16.1734 1.62078 16.3442 1.79253L19.6075 5.08336H0.916667C0.673551 5.08336 0.440394 5.17994 0.268485 5.35185C0.0965771 5.52376 0 5.75692 0 6.00003C0 6.24315 0.0965771 6.4763 0.268485 6.64821C0.440394 6.82012 0.673551 6.9167 0.916667 6.9167H19.6625L16.3442 10.2259C16.2582 10.3111 16.1901 10.4125 16.1435 10.5242C16.097 10.6359 16.073 10.7557 16.073 10.8767C16.073 10.9977 16.097 11.1175 16.1435 11.2292C16.1901 11.3409 16.2582 11.4423 16.3442 11.5275C16.4294 11.6135 16.5308 11.6816 16.6425 11.7282C16.7542 11.7747 16.874 11.7987 16.995 11.7987C17.116 11.7987 17.2358 11.7747 17.3475 11.7282C17.4592 11.6816 17.5606 11.6135 17.6458 11.5275L21.1933 7.97086C21.7083 7.45524 21.9976 6.75628 21.9976 6.02753C21.9976 5.29878 21.7083 4.59982 21.1933 4.0842Z" fill="white"/>
</svg>
