<svg width="47" height="38" viewBox="0 0 47 38" fill="none" xmlns="http://www.w3.org/2000/svg">
<path d="M11.4 37.8C9.2 37.8 7.4 37.35 6 36.45C4.6 35.55 3.45 34.4 2.55 33C1.55 31.3 0.85 29.55 0.45 27.75C0.15 25.85 0 24.3 0 23.1C0 18.2 1.25 13.75 3.75 9.75001C6.25 5.75001 10.15 2.5 15.45 0L16.8 2.7C13.7 4 11 6.05 8.7 8.85C6.5 11.65 5.4 14.5 5.4 17.4C5.4 18.6 5.55 19.65 5.85 20.55C7.45 19.25 9.3 18.6 11.4 18.6C14 18.6 16.25 19.45 18.15 21.15C20.05 22.85 21 25.2 21 28.2C21 31 20.05 33.3 18.15 35.1C16.25 36.9 14 37.8 11.4 37.8ZM36.9 37.8C34.7 37.8 32.9 37.35 31.5 36.45C30.1 35.55 28.95 34.4 28.05 33C27.05 31.3 26.35 29.55 25.95 27.75C25.65 25.85 25.5 24.3 25.5 23.1C25.5 18.2 26.75 13.75 29.25 9.75001C31.75 5.75001 35.65 2.5 40.95 0L42.3 2.7C39.2 4 36.5 6.05 34.2 8.85C32 11.65 30.9 14.5 30.9 17.4C30.9 18.6 31.05 19.65 31.35 20.55C32.95 19.25 34.8 18.6 36.9 18.6C39.5 18.6 41.75 19.45 43.65 21.15C45.55 22.85 46.5 25.2 46.5 28.2C46.5 31 45.55 33.3 43.65 35.1C41.75 36.9 39.5 37.8 36.9 37.8Z" fill="#FCF1DA"/>
</svg>
