<svg width="20" height="21" viewBox="0 0 20 21" fill="none" xmlns="http://www.w3.org/2000/svg">
<path d="M3.33157 13.0559C3.31686 12.836 3.38985 12.6192 3.53457 12.453L9.37241 5.78471C9.45064 5.69523 9.5471 5.62352 9.65532 5.57438C9.76354 5.52524 9.88102 5.49982 9.99988 5.49982C10.1187 5.49982 10.2362 5.52524 10.3444 5.57438C10.4527 5.62352 10.5491 5.69523 10.6273 5.78471L16.459 12.453C16.6041 12.6195 16.6771 12.8367 16.6621 13.057C16.6471 13.2773 16.5453 13.4827 16.3791 13.628C16.2126 13.773 15.9953 13.8461 15.775 13.8311C15.5547 13.8161 15.3494 13.7143 15.2041 13.548L9.99988 7.59943L4.78949 13.548C4.6442 13.7143 4.43886 13.8161 4.21856 13.8311C3.99827 13.8461 3.78102 13.773 3.61454 13.628C3.53209 13.5559 3.46467 13.4683 3.41611 13.3701C3.36756 13.2719 3.33883 13.1652 3.33157 13.0559Z" fill="#B0C2DF"/>
</svg>
