<svg width="287" height="70" viewBox="0 0 287 70" fill="none" xmlns="http://www.w3.org/2000/svg">
<g clip-path="url(#clip0_611_1882)">
<path d="M80.456 48.6473H81.6855L87.0689 61.4227H85.7324L84.3407 58.0309H77.5656L76.1204 61.4227H74.873L80.456 48.6473ZM81.0155 49.9464L78.0343 56.9471H83.9059L81.0155 49.9464Z" fill="#443F3F"/>
<path d="M93.6104 48.6473H94.8025V54.2778H101.957V48.6473H103.149V61.4227H101.957V55.3598H94.8025V61.4227H93.6104V48.6473Z" fill="#443F3F"/>
<path d="M106.257 49.7845C106.257 49.5567 106.335 49.3627 106.492 49.2079C106.649 49.0531 106.841 48.973 107.069 48.973C107.298 48.973 107.492 49.0513 107.647 49.2079C107.804 49.3645 107.882 49.5567 107.882 49.7845C107.882 50.0123 107.804 50.2062 107.647 50.3611C107.49 50.5177 107.298 50.596 107.069 50.596C106.841 50.596 106.647 50.5177 106.492 50.3611C106.335 50.2045 106.257 50.0123 106.257 49.7845ZM106.528 53.0855H107.611V61.4209H106.528V53.0855Z" fill="#443F3F"/>
<path d="M119.068 60.8817C119.068 61.9156 118.917 62.752 118.617 63.3891C118.316 64.0262 117.94 64.5191 117.488 64.8679C117.037 65.2167 116.55 65.4516 116.033 65.5708C115.515 65.6918 115.046 65.7505 114.624 65.7505C114.202 65.7505 113.79 65.7114 113.385 65.6331C112.981 65.5548 112.6 65.4409 112.238 65.2896C111.876 65.1384 111.548 64.9551 111.252 64.7398C110.957 64.5227 110.702 64.2771 110.484 63.9995L111.334 63.2058C111.719 63.7468 112.202 64.1436 112.78 64.3963C113.357 64.649 113.972 64.7754 114.622 64.7754C115.176 64.7754 115.643 64.7024 116.023 64.5582C116.402 64.4141 116.716 64.2237 116.962 63.9906C117.208 63.7557 117.402 63.4976 117.539 63.2147C117.678 62.9318 117.78 62.6488 117.846 62.3659C117.912 62.0829 117.951 61.816 117.963 61.5633C117.976 61.3106 117.981 61.1059 117.981 60.9493V59.7944H117.946C117.632 60.2998 117.208 60.6966 116.671 60.9849C116.135 61.2732 115.506 61.4174 114.784 61.4174C114.17 61.4174 113.592 61.307 113.05 61.0828C112.509 60.8604 112.035 60.5543 111.632 60.1628C111.228 59.7713 110.909 59.3175 110.675 58.7997C110.44 58.2818 110.322 57.7284 110.322 57.1393C110.322 56.5503 110.44 55.9969 110.675 55.479C110.91 54.9612 111.229 54.511 111.632 54.1248C112.035 53.7404 112.509 53.4326 113.05 53.2048C113.592 52.977 114.171 52.8613 114.784 52.8613C115.508 52.8613 116.137 53.0055 116.671 53.2938C117.208 53.582 117.632 53.9789 117.946 54.4843H117.981V53.0767H119.065V60.871L119.068 60.8817ZM118.02 57.1465C118.02 56.6891 117.933 56.2603 117.758 55.8563C117.584 55.4541 117.349 55.1053 117.055 54.8099C116.759 54.5145 116.409 54.2814 116.007 54.107C115.602 53.9326 115.173 53.8454 114.715 53.8454C114.257 53.8454 113.826 53.9326 113.423 54.107C113.018 54.2814 112.671 54.5163 112.375 54.8099C112.079 55.1053 111.844 55.4541 111.671 55.8563C111.497 56.2603 111.409 56.6891 111.409 57.1465C111.409 57.6038 111.497 58.0327 111.671 58.4366C111.846 58.8406 112.081 59.1894 112.375 59.483C112.671 59.7784 113.018 60.0133 113.423 60.1877C113.826 60.3621 114.257 60.4493 114.715 60.4493C115.173 60.4493 115.602 60.3621 116.007 60.1877C116.409 60.0133 116.759 59.7784 117.055 59.483C117.35 59.1894 117.584 58.8406 117.758 58.4366C117.933 58.0345 118.02 57.6038 118.02 57.1465Z" fill="#443F3F"/>
<path d="M121.722 47.7825H122.806V54.5483H122.842C123.059 54.091 123.419 53.6977 123.925 53.3667C124.431 53.0357 125.021 52.8702 125.696 52.8702C126.372 52.8702 126.876 52.9734 127.286 53.1763C127.696 53.3809 128.018 53.6479 128.252 53.9788C128.487 54.3098 128.649 54.6924 128.74 55.1249C128.831 55.5573 128.875 56.0022 128.875 56.4595V61.4209H127.792V56.5129C127.792 56.1766 127.762 55.8474 127.701 55.5288C127.64 55.2103 127.535 54.9238 127.386 54.6711C127.234 54.4184 127.024 54.2173 126.753 54.0661C126.482 53.9148 126.129 53.84 125.696 53.84C125.299 53.84 124.923 53.9094 124.567 54.0483C124.212 54.1871 123.904 54.397 123.645 54.68C123.387 54.9629 123.182 55.3171 123.03 55.7442C122.879 56.1712 122.804 56.6731 122.804 57.2514V61.4191H121.721V47.7789L121.722 47.7825Z" fill="#443F3F"/>
<path d="M139.14 59.8531C138.717 60.4902 138.197 60.9475 137.577 61.2251C136.957 61.501 136.272 61.6398 135.526 61.6398C134.888 61.6398 134.309 61.5312 133.792 61.3141C133.273 61.097 132.828 60.7945 132.455 60.403C132.081 60.0133 131.796 59.5488 131.596 59.0132C131.397 58.4775 131.299 57.8849 131.299 57.2354C131.299 56.5859 131.4 56.0324 131.605 55.5039C131.81 54.9754 132.099 54.5145 132.473 54.123C132.847 53.7315 133.286 53.4254 133.792 53.203C134.298 52.9805 134.857 52.8684 135.472 52.8684C136.087 52.8684 136.673 52.9805 137.162 53.203C137.65 53.4254 138.06 53.7208 138.391 54.0874C138.723 54.454 138.972 54.8722 139.141 55.342C139.311 55.8118 139.394 56.2869 139.394 56.7674V57.5255H132.384C132.384 57.7532 132.429 58.0469 132.519 58.401C132.61 58.7551 132.774 59.1021 133.017 59.4385C133.257 59.7748 133.58 60.0649 133.982 60.3051C134.385 60.5453 134.907 60.6664 135.545 60.6664C136.099 60.6664 136.636 60.5347 137.153 60.2695C137.669 60.0044 138.069 59.6449 138.345 59.1876L139.14 59.8549V59.8531ZM138.309 56.5521C138.309 56.1784 138.234 55.8296 138.083 55.5057C137.931 55.1818 137.728 54.8953 137.468 54.6479C137.21 54.4024 136.901 54.2066 136.547 54.0625C136.192 53.9183 135.814 53.8454 135.417 53.8454C134.827 53.8454 134.335 53.9664 133.945 54.2066C133.553 54.4469 133.243 54.7245 133.015 55.0359C132.787 55.3491 132.623 55.6534 132.527 55.947C132.43 56.2424 132.382 56.4435 132.382 56.5521H138.309Z" fill="#443F3F"/>
<path d="M141.815 55.4328C141.815 55.2762 141.809 55.0875 141.797 54.8651C141.784 54.6427 141.775 54.4167 141.77 54.1889C141.763 53.9611 141.754 53.7476 141.743 53.5482C141.733 53.3489 141.726 53.1959 141.726 53.0873H142.809C142.821 53.4005 142.83 53.7013 142.836 53.9896C142.841 54.2779 142.857 54.4647 142.88 54.5483C143.157 54.0554 143.513 53.6515 143.946 53.34C144.379 53.0286 144.91 52.8702 145.535 52.8702C145.644 52.8702 145.749 52.8791 145.853 52.8969C145.954 52.9147 146.061 52.9361 146.168 52.961L146.042 54.0252C145.897 53.9771 145.758 53.9522 145.626 53.9522C145.156 53.9522 144.75 54.0269 144.407 54.1782C144.064 54.3295 143.78 54.5359 143.557 54.801C143.335 55.0662 143.169 55.3758 143.06 55.73C142.952 56.0841 142.898 56.4667 142.898 56.876V61.4227H141.815V55.4328Z" fill="#443F3F"/>
<path d="M153.18 59.0594C153.493 59.6004 153.9 60.0043 154.399 60.2677C154.898 60.5329 155.468 60.6645 156.106 60.6645C156.503 60.6645 156.876 60.604 157.227 60.4848C157.576 60.3638 157.881 60.1965 158.139 59.9794C158.397 59.7623 158.602 59.5007 158.754 59.1946C158.905 58.8886 158.98 58.5416 158.98 58.1572C158.98 57.7123 158.886 57.3457 158.7 57.0556C158.513 56.7674 158.264 56.5289 157.95 56.3438C157.637 56.1587 157.284 55.9986 156.894 55.8651C156.501 55.7334 156.099 55.6 155.684 55.4683C155.268 55.3366 154.864 55.1853 154.474 55.0181C154.082 54.849 153.731 54.6301 153.417 54.3596C153.103 54.0891 152.854 53.7493 152.667 53.34C152.48 52.9307 152.387 52.4253 152.387 51.8238C152.387 51.2579 152.497 50.7561 152.722 50.3165C152.945 49.877 153.246 49.5104 153.625 49.215C154.005 48.9214 154.442 48.6971 154.935 48.5477C155.429 48.3982 155.947 48.3217 156.489 48.3217C157.188 48.3217 157.834 48.4444 158.431 48.6918C159.028 48.9392 159.543 49.3502 159.976 49.9268L158.946 50.6671C158.645 50.2453 158.292 49.9304 157.89 49.7204C157.485 49.5104 157.008 49.4054 156.453 49.4054C156.068 49.4054 155.7 49.457 155.35 49.5584C155.001 49.6599 154.696 49.8111 154.438 50.0087C154.18 50.208 153.971 50.4571 153.814 50.7578C153.657 51.0586 153.579 51.4127 153.579 51.822C153.579 52.4591 153.741 52.9502 154.067 53.2919C154.393 53.6336 154.8 53.9059 155.288 54.1034C155.776 54.3009 156.305 54.4771 156.877 54.6266C157.449 54.7778 157.979 54.9789 158.467 55.2316C158.955 55.4843 159.362 55.8367 159.688 56.2869C160.014 56.7371 160.176 57.3599 160.176 58.1536C160.176 58.7302 160.067 59.2427 159.85 59.6876C159.632 60.1325 159.34 60.5079 158.973 60.8158C158.606 61.1219 158.18 61.3532 157.699 61.5098C157.218 61.6664 156.717 61.7447 156.199 61.7447C155.356 61.7447 154.579 61.597 153.868 61.3034C153.157 61.0098 152.549 60.5133 152.043 59.8157L153.182 59.0576L153.18 59.0594Z" fill="#443F3F"/>
<path d="M166.657 54.0607H164.273V59.4918C164.273 59.8655 164.374 60.1538 164.579 60.3584C164.784 60.5631 165.067 60.6645 165.427 60.6645C165.632 60.6645 165.841 60.6378 166.051 60.5827C166.261 60.5293 166.463 60.4599 166.657 60.3745L166.748 61.3497C166.543 61.4226 166.308 61.4885 166.044 61.5472C165.78 61.6059 165.543 61.6379 165.34 61.6379C164.955 61.6379 164.624 61.581 164.346 61.4671C164.068 61.3532 163.845 61.2002 163.678 61.0062C163.508 60.814 163.385 60.588 163.307 60.33C163.228 60.0719 163.189 59.7926 163.189 59.4918V54.0607H161.382V53.0855H163.189V50.6866H164.273V53.0855H166.657V54.0607Z" fill="#443F3F"/>
<path d="M175.077 57.9224C175.077 58.3316 175.08 58.6982 175.086 59.0239C175.091 59.3495 175.1 59.6503 175.113 59.9261C175.125 60.2037 175.139 60.4618 175.157 60.702C175.175 60.9422 175.202 61.1825 175.239 61.4245H174.227C174.154 61.0152 174.118 60.565 174.118 60.072H174.083C173.769 60.613 173.38 61.0099 172.917 61.2626C172.454 61.5152 171.866 61.6416 171.155 61.6416C170.793 61.6416 170.438 61.5971 170.089 61.5063C169.74 61.4156 169.426 61.2715 169.15 61.0739C168.874 60.8764 168.648 60.6201 168.473 60.3069C168.298 59.9937 168.211 59.6147 168.211 59.1698C168.211 58.5327 168.373 58.0273 168.699 57.6536C169.025 57.2817 169.424 57.0005 169.9 56.8155C170.376 56.6286 170.882 56.5094 171.418 56.4542C171.955 56.4008 172.427 56.3724 172.837 56.3724H174.102V55.867C174.102 55.1445 173.879 54.6284 173.434 54.3152C172.988 54.002 172.427 53.8454 171.754 53.8454C170.789 53.8454 169.941 54.1586 169.205 54.7832L168.573 54.043C168.97 53.6586 169.464 53.3667 170.053 53.1674C170.643 52.9681 171.21 52.8702 171.752 52.8702C172.764 52.8702 173.571 53.1087 174.173 53.5838C174.776 54.059 175.077 54.826 175.077 55.8848V57.9241V57.9224ZM172.908 57.2372C172.45 57.2372 172.008 57.2675 171.581 57.328C171.153 57.3885 170.768 57.4899 170.424 57.6341C170.08 57.7782 169.806 57.9704 169.603 58.2106C169.398 58.4509 169.296 58.7516 169.296 59.1129C169.296 59.3656 169.353 59.5916 169.467 59.7891C169.581 59.9884 169.729 60.1503 169.909 60.2767C170.089 60.403 170.29 60.4991 170.515 60.565C170.738 60.6308 170.964 60.6646 171.192 60.6646C171.77 60.6646 172.245 60.581 172.62 60.4119C172.994 60.2429 173.291 60.024 173.514 59.7535C173.737 59.483 173.89 59.1769 173.976 58.8335C174.059 58.49 174.102 58.1448 174.102 57.796V57.2372H172.91H172.908Z" fill="#443F3F"/>
<path d="M177.969 55.4328C177.969 55.2762 177.964 55.0875 177.951 54.8651C177.939 54.6427 177.93 54.4167 177.924 54.1889C177.917 53.9611 177.908 53.7476 177.898 53.5482C177.887 53.3489 177.88 53.1959 177.88 53.0873H178.963C178.976 53.4005 178.985 53.7013 178.99 53.9896C178.995 54.2779 179.011 54.4647 179.035 54.5483H179.088C179.305 54.091 179.665 53.6977 180.172 53.3667C180.678 53.0357 181.267 52.8702 181.943 52.8702C182.618 52.8702 183.122 52.9735 183.532 53.1763C183.942 53.381 184.265 53.6479 184.498 53.9789C184.733 54.3099 184.896 54.6925 184.986 55.1249C185.077 55.5573 185.122 56.0022 185.122 56.4596V61.4209H184.038V56.513C184.038 56.1766 184.008 55.8474 183.948 55.5289C183.887 55.2103 183.782 54.9238 183.632 54.6711C183.481 54.4184 183.27 54.2174 182.999 54.0661C182.729 53.9148 182.376 53.8401 181.943 53.8401C181.545 53.8401 181.169 53.9095 180.813 54.0483C180.457 54.1871 180.15 54.3971 179.892 54.68C179.633 54.963 179.428 55.3171 179.277 55.7442C179.125 56.1713 179.051 56.6731 179.051 57.2515V61.4192H177.967V55.4292L177.969 55.4328Z" fill="#443F3F"/>
<path d="M195.313 59.9617H195.277C195.108 60.25 194.898 60.5009 194.645 60.7109C194.392 60.9208 194.117 61.0952 193.823 61.234C193.527 61.3728 193.217 61.4743 192.893 61.5401C192.567 61.606 192.248 61.6398 191.936 61.6398C191.298 61.6398 190.706 61.5312 190.165 61.3141C189.623 61.097 189.16 60.7945 188.773 60.403C188.388 60.0133 188.087 59.5488 187.87 59.0132C187.652 58.4775 187.543 57.8921 187.543 57.2532C187.543 56.6144 187.652 56.0289 187.87 55.4932C188.087 54.9576 188.388 54.4949 188.773 54.1034C189.158 53.7119 189.621 53.4094 190.165 53.1923C190.706 52.9752 191.296 52.8666 191.936 52.8666C192.25 52.8666 192.569 52.9005 192.893 52.9663C193.219 53.0321 193.527 53.1353 193.823 53.2724C194.119 53.4112 194.392 53.5856 194.645 53.7956C194.898 54.0055 195.108 54.2565 195.277 54.5447H195.313V47.7789H196.396V61.4191H195.313V59.9581V59.9617ZM195.422 57.255C195.422 56.7852 195.331 56.3439 195.151 55.9292C194.971 55.5146 194.723 55.1533 194.409 54.8473C194.096 54.5412 193.729 54.2974 193.308 54.1159C192.886 53.9361 192.43 53.8454 191.934 53.8454C191.439 53.8454 190.97 53.9361 190.56 54.1159C190.15 54.2956 189.801 54.5394 189.513 54.8473C189.224 55.1551 189.003 55.5146 188.853 55.9292C188.702 56.3439 188.627 56.787 188.627 57.255C188.627 57.723 188.702 58.1661 188.853 58.5807C189.003 58.9954 189.224 59.3566 189.513 59.6627C189.801 59.9688 190.15 60.2126 190.56 60.3941C190.97 60.5738 191.428 60.6646 191.934 60.6646C192.44 60.6646 192.886 60.5738 193.308 60.3941C193.73 60.2144 194.098 59.9706 194.409 59.6627C194.721 59.3548 194.969 58.9954 195.151 58.5807C195.331 58.1661 195.422 57.723 195.422 57.255Z" fill="#443F3F"/>
<path d="M205.54 57.9224C205.54 58.3316 205.543 58.6982 205.549 59.0239C205.554 59.3495 205.563 59.6503 205.575 59.9261C205.588 60.2037 205.602 60.4618 205.62 60.702C205.638 60.9422 205.664 61.1825 205.702 61.4245H204.69C204.617 61.0152 204.581 60.565 204.581 60.072H204.545C204.232 60.613 203.843 61.0099 203.38 61.2626C202.917 61.5152 202.329 61.6416 201.618 61.6416C201.256 61.6416 200.901 61.5971 200.552 61.5063C200.203 61.4156 199.889 61.2715 199.613 61.0739C199.337 60.8764 199.11 60.6201 198.936 60.3069C198.761 59.9937 198.674 59.6147 198.674 59.1698C198.674 58.5327 198.836 58.0273 199.162 57.6536C199.488 57.2817 199.887 57.0005 200.363 56.8155C200.839 56.6286 201.345 56.5094 201.881 56.4542C202.418 56.4008 202.89 56.3724 203.3 56.3724H204.565V55.867C204.565 55.1445 204.342 54.6284 203.897 54.3152C203.451 54.002 202.89 53.8454 202.216 53.8454C201.252 53.8454 200.404 54.1586 199.668 54.7832L199.036 54.043C199.433 53.6586 199.927 53.3667 200.516 53.1674C201.106 52.9681 201.673 52.8702 202.215 52.8702C203.227 52.8702 204.034 53.1087 204.636 53.5838C205.239 54.059 205.54 54.826 205.54 55.8848V57.9241V57.9224ZM203.371 57.2372C202.913 57.2372 202.471 57.2675 202.044 57.328C201.616 57.3885 201.231 57.4899 200.887 57.6341C200.543 57.7782 200.269 57.9704 200.066 58.2106C199.861 58.4509 199.759 58.7516 199.759 59.1129C199.759 59.3656 199.816 59.5916 199.93 59.7891C200.044 59.9884 200.192 60.1503 200.372 60.2767C200.552 60.403 200.753 60.4991 200.978 60.565C201.201 60.6308 201.427 60.6646 201.655 60.6646C202.232 60.6646 202.708 60.581 203.082 60.4119C203.457 60.2429 203.754 60.024 203.977 59.7535C204.2 59.483 204.353 59.1769 204.439 58.8335C204.522 58.49 204.565 58.1448 204.565 57.796V57.2372H203.373H203.371Z" fill="#443F3F"/>
<path d="M208.43 55.4328C208.43 55.2762 208.425 55.0875 208.412 54.8651C208.4 54.6427 208.391 54.4167 208.385 54.1889C208.378 53.9611 208.369 53.7476 208.359 53.5482C208.348 53.3489 208.341 53.1959 208.341 53.0873H209.424C209.437 53.4005 209.446 53.7013 209.451 53.9896C209.456 54.2779 209.472 54.4647 209.496 54.5483C209.772 54.0554 210.128 53.6515 210.561 53.34C210.994 53.0286 211.525 52.8702 212.151 52.8702C212.259 52.8702 212.364 52.8791 212.468 52.8969C212.569 52.9147 212.676 52.9361 212.783 52.961L212.657 54.0252C212.512 53.9771 212.373 53.9522 212.242 53.9522C211.771 53.9522 211.365 54.0269 211.023 54.1782C210.679 54.3295 210.395 54.5359 210.173 54.801C209.95 55.0662 209.784 55.3758 209.676 55.73C209.567 56.0841 209.513 56.4667 209.513 56.876V61.4227H208.43V55.4328Z" fill="#443F3F"/>
<path d="M221.421 59.9617H221.385C221.216 60.25 221.006 60.5009 220.753 60.7109C220.5 60.9208 220.225 61.0952 219.931 61.234C219.635 61.3728 219.325 61.4743 219.001 61.5401C218.675 61.606 218.356 61.6398 218.044 61.6398C217.406 61.6398 216.814 61.5312 216.273 61.3141C215.731 61.097 215.268 60.7945 214.881 60.403C214.496 60.0133 214.195 59.5488 213.977 59.0132C213.76 58.4775 213.651 57.8921 213.651 57.2532C213.651 56.6144 213.76 56.0289 213.977 55.4932C214.195 54.9576 214.496 54.4949 214.881 54.1034C215.266 53.7119 215.729 53.4094 216.273 53.1923C216.814 52.9752 217.404 52.8666 218.044 52.8666C218.358 52.8666 218.677 52.9005 219.001 52.9663C219.327 53.0321 219.635 53.1353 219.931 53.2724C220.227 53.4112 220.5 53.5856 220.753 53.7956C221.006 54.0055 221.216 54.2565 221.385 54.5447H221.421V47.7789H222.504V61.4191H221.421V59.9581V59.9617ZM221.529 57.255C221.529 56.7852 221.439 56.3439 221.259 55.9292C221.079 55.5146 220.831 55.1533 220.517 54.8473C220.204 54.5412 219.837 54.2974 219.416 54.1159C218.994 53.9361 218.538 53.8454 218.042 53.8454C217.547 53.8454 217.078 53.9361 216.668 54.1159C216.258 54.2956 215.909 54.5394 215.62 54.8473C215.332 55.1551 215.111 55.5146 214.961 55.9292C214.81 56.3439 214.735 56.787 214.735 57.255C214.735 57.723 214.81 58.1661 214.961 58.5807C215.111 58.9954 215.332 59.3566 215.62 59.6627C215.909 59.9688 216.258 60.2126 216.668 60.3941C217.078 60.5738 217.536 60.6646 218.042 60.6646C218.548 60.6646 218.994 60.5738 219.416 60.3941C219.838 60.2144 220.205 59.9706 220.517 59.6627C220.829 59.3548 221.077 58.9954 221.259 58.5807C221.439 58.1661 221.529 57.723 221.529 57.255Z" fill="#443F3F"/>
<path d="M229.39 57.255C229.39 56.6179 229.498 56.0307 229.716 55.495C229.933 54.9594 230.234 54.4967 230.619 54.1052C231.004 53.7137 231.467 53.4112 232.011 53.1941C232.553 52.977 233.142 52.8684 233.782 52.8684C234.422 52.8684 235.008 52.977 235.545 53.1941C236.081 53.4112 236.544 53.7155 236.936 54.1052C237.328 54.4967 237.631 54.9594 237.849 55.495C238.066 56.0307 238.175 56.6161 238.175 57.255C238.175 57.8938 238.066 58.4793 237.849 59.0149C237.631 59.5506 237.328 60.0133 236.936 60.4048C236.544 60.7963 236.081 61.0988 235.545 61.3159C235.008 61.533 234.42 61.6415 233.782 61.6415C233.144 61.6415 232.553 61.533 232.011 61.3159C231.469 61.0988 231.006 60.7963 230.619 60.4048C230.234 60.015 229.933 59.5506 229.716 59.0149C229.498 58.4793 229.39 57.8938 229.39 57.255ZM230.473 57.255C230.473 57.7248 230.548 58.1661 230.699 58.5807C230.849 58.9954 231.07 59.3566 231.359 59.6627C231.647 59.9688 231.997 60.2126 232.407 60.3941C232.816 60.5738 233.274 60.6646 233.78 60.6646C234.287 60.6646 234.744 60.5738 235.154 60.3941C235.564 60.2144 235.913 59.9706 236.202 59.6627C236.491 59.3548 236.712 58.9954 236.861 58.5807C237.011 58.1661 237.088 57.723 237.088 57.255C237.088 56.787 237.013 56.3439 236.861 55.9292C236.71 55.5146 236.491 55.1533 236.202 54.8473C235.913 54.5412 235.564 54.2974 235.154 54.1159C234.744 53.9361 234.287 53.8454 233.78 53.8454C233.274 53.8454 232.816 53.9361 232.407 54.1159C231.997 54.2956 231.647 54.5394 231.359 54.8473C231.07 55.1551 230.849 55.5146 230.699 55.9292C230.548 56.3439 230.473 56.787 230.473 57.255Z" fill="#443F3F"/>
<path d="M241.206 54.0607H239.472V53.0855H241.206V50.361C241.206 49.8201 241.288 49.3716 241.45 49.0175C241.612 48.6634 241.814 48.3768 242.056 48.1597C242.297 47.9426 242.566 47.7896 242.86 47.6988C243.156 47.6081 243.435 47.5636 243.699 47.5636C244.205 47.5636 244.62 47.6366 244.946 47.7807L244.729 48.7185C244.488 48.5993 244.162 48.5388 243.752 48.5388C242.776 48.5388 242.289 49.2791 242.289 50.7579V53.0855H244.241V54.0607H242.289V61.4227H241.206V54.0607Z" fill="#443F3F"/>
<path d="M261.478 59.4189C260.863 60.2482 260.152 60.8444 259.346 61.2056C258.539 61.5668 257.666 61.7466 256.727 61.7466C255.788 61.7466 254.858 61.5811 254.043 61.2501C253.231 60.9191 252.534 60.4564 251.957 59.8603C251.379 59.2641 250.927 58.5559 250.601 57.7302C250.274 56.9062 250.112 56.0076 250.112 55.0324C250.112 54.0572 250.274 53.1621 250.601 52.3435C250.927 51.5249 251.378 50.8184 251.957 50.2241C252.534 49.6279 253.231 49.1617 254.043 48.8253C254.856 48.489 255.75 48.3199 256.727 48.3199C257.595 48.3199 258.404 48.473 259.158 48.7808C259.911 49.0887 260.571 49.6012 261.136 50.3237L260.159 51.1352C259.762 50.5337 259.252 50.0942 258.632 49.8183C258.012 49.5425 257.376 49.4037 256.725 49.4037C255.895 49.4037 255.145 49.5478 254.476 49.8361C253.808 50.1244 253.24 50.5212 252.769 51.0266C252.299 51.532 251.939 52.1264 251.686 52.8133C251.433 53.4984 251.306 54.2387 251.306 55.0324C251.306 55.826 251.433 56.5663 251.686 57.2515C251.939 57.9366 252.301 58.5327 252.769 59.0381C253.24 59.5435 253.808 59.9403 254.476 60.2286C255.145 60.5169 255.895 60.6611 256.725 60.6611C257.051 60.6611 257.388 60.6219 257.737 60.5436C258.087 60.4653 258.427 60.3443 258.758 60.1824C259.09 60.0204 259.405 59.8158 259.706 59.5684C260.008 59.3228 260.273 59.0239 260.501 58.6751L261.478 59.4154V59.4189Z" fill="#443F3F"/>
<path d="M269.844 57.9224C269.844 58.3316 269.848 58.6982 269.853 59.0239C269.858 59.3495 269.867 59.6503 269.88 59.9261C269.892 60.2037 269.906 60.4618 269.924 60.702C269.942 60.9422 269.969 61.1825 270.006 61.4245H268.994C268.921 61.0152 268.885 60.565 268.885 60.072H268.85C268.536 60.613 268.148 61.0099 267.684 61.2626C267.221 61.5152 266.633 61.6416 265.922 61.6416C265.56 61.6416 265.206 61.5971 264.856 61.5063C264.507 61.4156 264.193 61.2715 263.917 61.0739C263.641 60.8764 263.415 60.6201 263.24 60.3069C263.065 59.9937 262.978 59.6147 262.978 59.1698C262.978 58.5327 263.14 58.0273 263.466 57.6536C263.792 57.2817 264.192 57.0005 264.667 56.8155C265.143 56.6286 265.649 56.5094 266.186 56.4542C266.722 56.4008 267.194 56.3724 267.604 56.3724H268.869V55.867C268.869 55.1445 268.646 54.6284 268.201 54.3152C267.755 54.002 267.194 53.8454 266.521 53.8454C265.557 53.8454 264.708 54.1586 263.972 54.7832L263.34 54.043C263.737 53.6586 264.231 53.3667 264.821 53.1674C265.41 52.9681 265.977 52.8702 266.519 52.8702C267.531 52.8702 268.338 53.1087 268.941 53.5838C269.543 54.059 269.844 54.826 269.844 55.8848V57.9241V57.9224ZM267.675 57.2372C267.217 57.2372 266.775 57.2675 266.348 57.328C265.92 57.3885 265.535 57.4899 265.191 57.6341C264.847 57.7782 264.573 57.9704 264.37 58.2106C264.165 58.4509 264.063 58.7516 264.063 59.1129C264.063 59.3656 264.12 59.5916 264.234 59.7891C264.348 59.9884 264.496 60.1503 264.676 60.2767C264.856 60.403 265.058 60.4991 265.282 60.565C265.505 60.6308 265.731 60.6646 265.959 60.6646C266.537 60.6646 267.012 60.581 267.387 60.4119C267.761 60.2429 268.058 60.024 268.281 59.7535C268.504 59.483 268.657 59.1769 268.743 58.8335C268.826 58.49 268.869 58.1448 268.869 57.796V57.2372H267.677H267.675Z" fill="#443F3F"/>
<path d="M272.735 55.4328C272.735 55.2762 272.729 55.0875 272.717 54.8651C272.704 54.6427 272.695 54.4167 272.69 54.1889C272.683 53.9611 272.674 53.7476 272.663 53.5482C272.651 53.3489 272.646 53.1959 272.646 53.0873H273.729C273.741 53.4005 273.75 53.7013 273.756 53.9896C273.761 54.2779 273.777 54.4647 273.8 54.5483C274.076 54.0554 274.433 53.6515 274.866 53.34C275.299 53.0268 275.83 52.8702 276.455 52.8702C276.564 52.8702 276.669 52.8791 276.773 52.8969C276.874 52.9147 276.981 52.9361 277.088 52.961L276.961 54.0252C276.817 53.9771 276.678 53.9522 276.546 53.9522C276.076 53.9522 275.67 54.0269 275.327 54.1782C274.983 54.3295 274.7 54.5359 274.477 54.801C274.255 55.0662 274.089 55.3758 273.98 55.73C273.872 56.0841 273.818 56.4667 273.818 56.876V61.4227H272.735V55.4328Z" fill="#443F3F"/>
<path d="M285.796 59.8531C285.374 60.4902 284.854 60.9475 284.233 61.2251C283.613 61.501 282.929 61.6398 282.182 61.6398C281.544 61.6398 280.965 61.5312 280.449 61.3141C279.93 61.097 279.485 60.7945 279.112 60.403C278.738 60.0133 278.453 59.5488 278.253 59.0132C278.055 58.4775 277.956 57.8849 277.956 57.2354C277.956 56.5859 278.057 56.0324 278.262 55.5039C278.467 54.9754 278.756 54.5145 279.13 54.123C279.502 53.7315 279.942 53.4254 280.449 53.203C280.955 52.9805 281.514 52.8684 282.129 52.8684C282.744 52.8684 283.33 52.9805 283.818 53.203C284.307 53.4254 284.715 53.7208 285.048 54.0874C285.379 54.454 285.629 54.8722 285.798 55.342C285.967 55.8118 286.051 56.2869 286.051 56.7674V57.5255H279.041C279.041 57.7532 279.085 58.0469 279.176 58.401C279.267 58.7551 279.433 59.1021 279.673 59.4385C279.914 59.7748 280.237 60.0649 280.641 60.3051C281.044 60.5453 281.566 60.6664 282.204 60.6664C282.758 60.6664 283.294 60.5347 283.811 60.2695C284.33 60.0044 284.727 59.6449 285.003 59.1876L285.798 59.8549L285.796 59.8531ZM284.966 56.5521C284.966 56.1784 284.891 55.8296 284.74 55.5057C284.588 55.18 284.383 54.8953 284.125 54.6479C283.865 54.4024 283.558 54.2066 283.203 54.0625C282.847 53.9183 282.471 53.8454 282.074 53.8454C281.484 53.8454 280.992 53.9664 280.602 54.2066C280.21 54.4469 279.9 54.7245 279.672 55.0359C279.444 55.3491 279.28 55.6534 279.183 55.947C279.087 56.2424 279.039 56.4435 279.039 56.5521H284.966Z" fill="#443F3F"/>
<path d="M91.0352 28.7663H81.0972L78.5115 34.3968H74.7373L86.2239 9.75903L97.3042 34.3968H93.4712L91.0352 28.7663ZM89.6061 25.4777L86.1633 17.5961L82.5548 25.4777H89.6061Z" fill="#132870"/>
<path d="M115.984 14.5033H106.598V20.0733H115.699V23.3619H106.598V34.3968H103.095V11.2147H115.984V14.5033Z" fill="#132870"/>
<path d="M123.939 34.3968V11.2147H128.811C131.148 11.2147 132.99 11.4443 134.344 11.9052C135.797 12.3554 137.115 13.1206 138.299 14.2026C140.694 16.3843 141.891 19.2529 141.891 22.8049C141.891 26.3568 140.644 29.2504 138.147 31.4534C136.894 32.555 135.581 33.3202 134.209 33.7508C132.926 34.1815 131.107 34.3968 128.751 34.3968H123.939ZM127.443 31.1082H129.022C130.595 31.1082 131.903 30.9427 132.946 30.6135C133.988 30.2629 134.931 29.7077 135.772 28.9478C137.495 27.3765 138.357 25.33 138.357 22.8066C138.357 20.2833 137.506 18.203 135.802 16.621C134.268 15.2098 132.008 14.5033 129.022 14.5033H127.443V31.1082Z" fill="#132870"/>
<path d="M148.059 32.7205C148.059 32.1688 148.26 31.6901 148.664 31.2861C149.069 30.8822 149.552 30.6793 150.115 30.6793C150.678 30.6793 151.161 30.8822 151.566 31.2861C151.97 31.6901 152.171 32.1724 152.171 32.7347C152.171 33.297 151.968 33.7935 151.566 34.1975C151.17 34.5908 150.687 34.7883 150.115 34.7883C149.543 34.7883 149.044 34.5908 148.65 34.1975C148.255 33.8042 148.059 33.3113 148.059 32.7187V32.7205Z" fill="#132870"/>
<path d="M55.9025 34.774H45.5261V24.4117H38.3929V34.774H28.0146V41.8975H38.3929V52.2616H45.5261V41.8975H55.9025V34.774Z" fill="#EAB818"/>
<path d="M221.314 25.273C221.194 25.1929 220.995 25.1146 220.836 25.2339C220.677 25.3531 220.517 25.5115 220.398 25.6716C219.681 26.4262 217.295 28.2146 216.379 28.6114C215.782 28.889 215.463 28.6915 215.344 28.0544C215.264 27.7359 215.264 27.38 215.264 27.0223C215.225 26.387 215.264 25.7517 215.264 25.0755C215.264 24.7569 215.303 24.401 215.225 24.0433C215.105 23.2888 214.428 23.0112 213.792 23.4472C213.395 23.7248 213.036 24.0433 212.717 24.401C212.042 25.1164 211.484 25.951 210.968 26.8248C209.934 28.4531 209.018 30.2023 208.182 31.9498C207.983 32.3075 207.904 32.7845 207.388 33.1421C207.348 32.9037 207.307 32.7844 207.307 32.6261C207.307 32.3075 207.307 31.9516 207.347 31.5939C207.625 28.7342 208.261 25.9528 209.096 23.2123C209.335 22.4186 209.654 21.7033 210.091 20.9879C210.791 19.9255 211.433 18.84 212.04 17.7367L212.557 17.6904C212.915 17.6512 213.234 17.6103 213.592 17.532C213.751 17.4929 213.831 17.2935 213.831 17.1352C213.792 16.9359 213.712 16.7383 213.512 16.7383C213.204 16.7383 212.896 16.7241 212.587 16.7223C213.555 14.8858 214.437 13.0049 215.303 11.0972C215.462 10.7004 215.622 10.3035 215.741 9.9049C215.822 9.70559 215.822 9.46713 215.822 9.2696C215.822 9.07207 215.503 8.87276 215.305 8.99199C215.146 9.07207 214.947 9.1913 214.788 9.34968C214.43 9.8266 214.033 10.3035 213.714 10.8196C212.516 12.7984 211.415 14.82 210.451 16.9021C208.599 17.0729 206.548 17.233 204.843 17.4146C204.565 17.4537 204.246 17.4946 203.888 17.3754C203.888 16.9376 204.046 16.701 204.166 16.4216C204.682 15.3485 205.201 14.3164 205.638 13.2433C206.235 11.9318 205.24 11.6933 204.643 12.8055C204.246 13.4408 203.888 14.0761 203.53 14.7132L202.455 17.0978C202.255 17.5356 201.977 17.7331 201.461 17.7722C200.069 17.9306 198.636 18.0908 197.204 18.2883C197.016 18.3257 196.838 18.3631 196.665 18.4058C197.307 17.2384 197.923 16.0585 198.517 14.8716C198.836 14.1562 199.153 13.4408 199.431 12.7255C199.59 12.3678 199.67 11.9709 199.75 11.6133C199.789 11.2947 199.75 10.978 199.392 10.8196C199.073 10.6612 198.795 10.7804 198.556 10.978C198.317 11.2164 198.039 11.4549 197.84 11.7325C197.482 12.2486 197.084 12.8055 196.765 13.3608C194.855 16.4589 193.502 19.8365 192.389 23.3315C192.171 24.1252 191.92 24.9189 191.428 25.5933C191.352 25.6592 191.278 25.7268 191.197 25.7944C190.519 26.3514 189.924 26.9458 189.247 27.5028C188.769 27.8996 188.253 28.2573 187.775 28.5758C187.417 28.7751 187.059 28.9335 186.701 29.0919C186.462 29.2111 186.303 29.0528 186.303 28.7734C186.303 28.0188 186.503 27.3426 186.701 26.629C187.098 25.2392 187.656 23.9277 188.292 22.6553C188.45 22.2976 188.65 21.9399 188.809 21.5822C188.928 21.2246 188.848 20.9469 188.609 20.7886C188.29 20.6302 188.092 20.7886 187.893 20.9879C187.693 21.2263 187.495 21.5449 187.296 21.8225C186.818 22.4578 186.38 23.0931 185.904 23.6892C185.626 24.0469 185.546 24.0861 185.188 23.8084C184.313 23.0931 183.397 23.2924 182.682 23.8476C182.443 24.006 182.244 24.1661 182.085 24.3637C181.634 24.7997 181.258 25.2819 180.936 25.7926C180.868 25.8585 180.8 25.9261 180.733 25.9919C179.778 26.8657 178.863 27.7804 177.908 28.6541C177.033 29.4478 176.078 30.124 175.045 30.681C174.487 30.9586 173.931 31.1971 173.334 31.3163C172.618 31.4356 172.14 31.117 171.981 30.4034C171.823 29.9657 171.743 29.4905 171.862 29.0136C171.901 28.8552 171.981 28.6951 172.181 28.6559C173.812 28.4566 174.886 27.3444 175.92 26.2322C176.436 25.677 176.795 24.9616 176.914 24.1661C176.994 23.1732 176.397 22.577 175.403 22.7354C174.608 22.8546 173.97 23.2906 173.373 23.8476C172.741 24.458 172.238 25.1467 171.834 25.8958C170.935 26.7322 168.877 28.252 168.043 28.6132C167.446 28.8908 167.127 28.6933 167.008 28.0562C166.928 27.7377 166.928 27.3818 166.928 27.0241C166.889 26.3888 166.928 25.7535 166.928 25.0773C166.928 24.7587 166.967 24.4028 166.889 24.0451C166.769 23.2906 166.092 23.013 165.456 23.449C165.059 23.7266 164.7 24.0451 164.381 24.4028C163.706 25.1182 163.148 25.9528 162.631 26.8265C161.598 28.4548 160.682 30.2041 159.846 31.9516C159.647 32.3093 159.568 32.7862 159.052 33.1439C159.012 32.9055 158.971 32.7862 158.971 32.6278C158.971 32.3093 158.971 31.9534 159.011 31.5957C159.289 28.736 159.925 25.9546 160.76 23.2141C160.999 22.4204 161.318 21.705 161.755 20.9897C163.824 17.8505 165.415 14.5139 166.967 11.0972C167.126 10.7004 167.286 10.3035 167.405 9.9049C167.486 9.70559 167.486 9.46713 167.486 9.2696C167.486 9.07207 167.167 8.87276 166.969 8.99199C166.81 9.07207 166.611 9.1913 166.452 9.34968C166.094 9.8266 165.696 10.3035 165.378 10.8196C163.309 14.2363 161.518 17.7722 160.245 21.5467C159.926 22.3813 159.689 23.2159 159.171 23.9295C159.052 24.1288 158.852 24.4064 158.971 24.6448C159.249 25.2001 159.011 25.677 158.891 26.1539C158.733 27.186 158.453 28.1808 158.294 29.2129C158.055 30.722 157.856 32.2328 157.936 33.7418C157.936 34.0995 157.975 34.4572 158.055 34.774C158.214 35.29 158.772 35.4484 159.169 35.0925C159.447 34.8541 159.647 34.5764 159.805 34.2579C160.124 33.7009 160.441 33.1065 160.721 32.5496C161.516 30.8412 162.352 29.2129 163.346 27.6238C163.863 26.75 164.421 25.9154 165.096 25.1609C165.215 25.0025 165.374 24.8833 165.574 24.7641C165.693 24.6448 165.852 24.7641 165.852 24.8833C165.891 25.241 165.891 25.5595 165.891 25.9154C165.852 26.75 165.852 27.5846 166.01 28.3783C166.288 29.6098 167.163 30.0867 168.357 29.6098C168.943 29.3749 170.041 28.631 171.005 27.9032C170.868 28.4014 170.748 28.9353 170.782 29.5297C170.743 29.9674 170.862 30.4426 171.021 30.8803C171.299 31.8342 172.055 32.3502 173.049 32.3502C173.765 32.3502 174.441 32.1118 175.079 31.8342C176.073 31.3573 177.028 30.722 177.903 30.0066C178.564 29.4745 179.19 28.9139 179.799 28.3392C179.731 28.5616 179.671 28.7858 179.614 29.0136C179.574 29.2129 179.574 29.4514 179.574 29.6489C179.655 30.4444 180.252 30.8412 180.927 30.4835C181.324 30.2842 181.683 30.0066 182.002 29.729C182.996 28.8552 183.912 27.8213 184.787 26.7892C185.026 26.5116 185.184 26.1539 185.781 25.9546C185.623 26.5507 185.503 26.9867 185.423 27.4636C185.343 28.0188 185.264 28.5758 185.264 29.1328C185.264 30.0457 185.742 30.4034 186.617 30.245C187.175 30.1258 187.691 29.8482 188.169 29.5297C189.324 28.8321 190.363 27.9708 191.357 27.0365C191.346 27.275 191.275 27.5135 191.232 27.7412C190.874 29.4496 190.596 31.1579 190.555 33.1439C190.555 33.4215 190.555 33.9394 190.594 34.4554C190.633 34.6547 190.714 34.8932 190.794 35.0907C191.191 36.2029 191.947 36.4414 192.863 35.6869C193.46 35.21 193.937 34.6547 194.374 34.0977C195.748 32.3004 197.202 30.2397 198.604 28.3694C198.397 29.2378 198.216 30.1134 198.073 30.9996C197.915 32.1509 197.715 33.3041 197.715 34.4964C197.715 35.0124 197.754 35.5285 197.954 36.0054C198.273 36.7599 198.868 37.0376 199.625 36.6816C200.064 36.4823 200.461 36.2047 200.739 35.8079C202.804 33.4269 205.174 29.9585 206.937 27.6256C206.823 28.1505 206.709 28.6773 206.627 29.2129C206.388 30.722 206.188 32.2328 206.268 33.7418C206.268 34.0995 206.308 34.4572 206.388 34.774C206.546 35.29 207.104 35.4484 207.502 35.0925C207.78 34.8541 207.979 34.5764 208.138 34.2579C208.457 33.7009 208.774 33.1065 209.054 32.5496C209.848 30.8412 210.684 29.2129 211.679 27.6238C212.195 26.75 212.753 25.9154 213.428 25.1609C213.548 25.0025 213.706 24.8833 213.906 24.7641C214.025 24.6448 214.184 24.7641 214.184 24.8833C214.223 25.241 214.223 25.5595 214.223 25.9154C214.184 26.75 214.184 27.5846 214.343 28.3783C214.621 29.6098 215.495 30.0867 216.689 29.6098C217.684 29.2129 220.15 27.3462 220.947 26.5899C221.185 26.3514 221.424 26.0738 221.503 25.7553C221.542 25.556 221.463 25.3976 221.303 25.2783L221.314 25.273ZM164.348 14.7452C164.308 14.8253 164.308 14.9446 164.228 15.0638L164.348 14.7452ZM164.109 15.2613L163.87 15.4606C163.95 15.3805 164.029 15.3022 164.109 15.2613ZM163.79 15.5389C163.829 15.7774 163.71 15.9767 163.551 16.1742V16.2134H163.512C163.711 16.0141 163.751 15.7756 163.79 15.5389ZM174.77 24.0807C174.97 23.9615 175.248 23.8423 175.487 23.8031C175.645 23.764 175.804 23.8423 175.845 24.1216C175.845 24.4402 175.686 24.7178 175.487 25.0345C174.85 26.1468 173.815 26.8621 172.701 27.4583C172.662 27.4974 172.543 27.4583 172.463 27.4191C172.423 27.4191 172.382 27.2999 172.382 27.2198C172.473 26.976 172.58 26.7394 172.693 26.508C172.905 26.2873 173.106 26.0347 173.177 25.7499C173.183 25.7197 173.183 25.6912 173.183 25.6627C173.601 25.047 174.12 24.506 174.769 24.0825L174.77 24.0807ZM184.756 25.1538C184.717 25.2339 184.676 25.3122 184.598 25.3531C183.564 26.6646 182.449 27.9744 181.176 29.0474C181.096 29.1275 180.977 29.2058 180.818 29.1666C180.818 29.1275 180.738 29.0866 180.738 29.0866C180.931 28.0793 181.285 27.1611 181.813 26.3461C181.839 26.3194 181.866 26.2927 181.891 26.266C182.01 26.1468 182.13 26.0275 182.21 25.8692C182.233 25.8229 182.247 25.7784 182.256 25.7357C182.504 25.4314 182.778 25.1449 183.085 24.8762C183.244 24.7178 183.482 24.5576 183.721 24.4793C183.999 24.3601 184.318 24.3993 184.596 24.5986C184.755 24.7178 184.835 24.9171 184.755 25.1538H184.756ZM212.682 14.7452C212.643 14.8253 212.643 14.9446 212.562 15.0638L212.682 14.7452ZM212.443 15.2613L212.204 15.4606C212.284 15.3805 212.363 15.3022 212.443 15.2613ZM212.124 15.5389C212.163 15.7774 212.044 15.9767 211.885 16.1742V16.2134H211.846C212.046 16.0141 212.085 15.7756 212.124 15.5389ZM195.138 18.9165C195.894 16.9697 196.81 15.1421 197.882 13.3554C198.041 13.1561 198.201 12.9177 198.519 13.117C198.493 13.0636 198.479 13.0238 198.479 12.9977C198.479 13.0369 198.519 13.0778 198.519 13.0778V13.117L197.444 15.2631C196.649 16.7721 195.892 18.242 195.136 19.7529C195.136 19.7137 195.097 19.7137 195.097 19.7529C194.978 19.4753 195.017 19.1977 195.136 18.9183L195.138 18.9165ZM199.037 26.0275C197.287 28.4513 195.218 31.311 193.388 33.6546C193.069 34.0924 192.672 34.4483 192.314 34.806C192.075 35.0053 191.797 34.8861 191.717 34.5675C191.478 33.7721 191.558 32.9393 191.637 32.1438C191.836 29.7201 192.273 27.3373 192.95 24.9936C193.15 24.3583 193.428 23.8013 193.786 23.2461C194.636 21.9346 195.438 20.5946 196.202 19.2368C196.669 19.308 197.138 19.2332 197.604 19.1549C198.679 19.0357 199.754 18.8773 200.826 18.7581C201.582 18.678 201.701 18.8382 201.462 19.5518C201.224 20.2262 200.946 20.9025 200.707 21.6178C200.238 22.9027 199.795 24.1964 199.395 25.5008C199.267 25.6592 199.149 25.8282 199.035 26.0275H199.037ZM200.509 34.5284C200.112 35.0053 199.793 35.5605 199.117 35.6406C198.52 35.1637 198.72 34.4483 198.759 33.8522C198.879 32.5015 199.037 31.19 199.356 29.8802C199.914 27.4174 201.903 21.3794 202.858 19.2332C203.097 18.678 203.415 18.4787 204.011 18.4396L209.996 17.9111C209.478 19.098 209.002 20.3045 208.585 21.5378C208.266 22.3724 208.029 23.207 207.51 23.9206C207.391 24.1199 207.192 24.3975 207.311 24.6359C207.443 24.8975 207.457 25.1413 207.425 25.3762C207.172 25.5471 207.013 25.7873 206.833 26.0258C205.68 27.218 202.537 32.0246 200.507 34.5266L200.509 34.5284Z" fill="#EAB818"/>
<path d="M27.4477 45.2021C25.4876 45.2021 23.5256 44.9903 21.6189 44.5739L20.8722 44.4102L12.1994 50.3503V40.4258L11.5205 39.8973C6.44361 35.9414 3.53187 30.2807 3.53187 24.3637C3.53187 12.8732 14.2611 3.52527 27.4477 3.52527C40.6343 3.52527 51.3636 12.8732 51.3636 24.3637C51.3636 26.492 50.9929 28.5474 50.3104 30.4817H54.0187C54.5907 28.526 54.8955 26.476 54.8955 24.3637C54.8955 10.9299 42.582 0 27.4477 0C12.3134 0 0 10.9299 0 24.3655C0 31.1028 3.14696 37.5323 8.66751 42.1306V57.0467L21.6207 48.1757C23.5363 48.5441 25.4929 48.7292 27.4477 48.7292C30.0922 48.7292 32.6475 48.3893 35.0674 47.7664V44.1113C32.6725 44.8142 30.1118 45.2021 27.4477 45.2021Z" fill="#132870"/>
<path d="M59.063 19.7814V24.611C62.3561 28.1826 64.3341 32.7133 64.3341 37.6408C64.3341 44.3657 60.5653 50.7169 54.2535 54.6283L53.4195 55.1462V63.3072L45.6448 57.9828L44.9427 58.1002C43.4405 58.3511 41.9187 58.4793 40.4183 58.4793C35.1418 58.4793 30.261 56.9791 26.3015 54.4486H20.5742C25.5762 59.1003 32.6204 62.0063 40.4183 62.0063C41.8759 62.0063 43.3514 61.8995 44.8126 61.6895L56.9496 70.0018V57.0877C63.8031 52.4911 67.8642 45.2893 67.8642 37.6408C67.8642 30.5921 64.4713 24.2356 59.0613 19.7832L59.063 19.7814Z" fill="#EAB818"/>
</g>
<defs>
<clipPath id="clip0_611_1882">
<rect width="286.049" height="70" fill="white"/>
</clipPath>
</defs>
</svg>
