<svg width="372" height="91" viewBox="0 0 372 91" fill="none" xmlns="http://www.w3.org/2000/svg">
<g clip-path="url(#clip0_1008_644)">
<path d="M104.631 63.2415H106.23L113.231 79.8494H111.493L109.683 75.44H100.872L98.9928 79.8494H97.3706L104.631 63.2415ZM105.359 64.9302L101.482 74.0312H109.118L105.359 64.9302Z" fill="white"/>
<path d="M121.738 63.2415H123.289V70.5611H132.593V63.2415H134.143V79.8494H132.593V71.9676H123.289V79.8494H121.738V63.2415Z" fill="white"/>
<path d="M138.185 64.7197C138.185 64.4236 138.287 64.1714 138.491 63.9702C138.695 63.7689 138.945 63.6648 139.242 63.6648C139.538 63.6648 139.791 63.7666 139.992 63.9702C140.196 64.1737 140.298 64.4236 140.298 64.7197C140.298 65.0158 140.196 65.268 139.992 65.4692C139.788 65.6728 139.538 65.7746 139.242 65.7746C138.945 65.7746 138.692 65.6728 138.491 65.4692C138.287 65.2657 138.185 65.0158 138.185 64.7197ZM138.537 69.0111H139.946V79.847H138.537V69.0111Z" fill="white"/>
<path d="M154.845 79.146C154.845 80.4901 154.648 81.5774 154.258 82.4056C153.867 83.2338 153.378 83.8746 152.789 84.328C152.203 84.7814 151.57 85.0868 150.898 85.2418C150.224 85.3991 149.614 85.4755 149.065 85.4755C148.516 85.4755 147.981 85.4246 147.454 85.3228C146.928 85.221 146.432 85.0729 145.962 84.8763C145.492 84.6797 145.065 84.4414 144.681 84.1614C144.296 83.8792 143.964 83.56 143.682 83.1991L144.787 82.1673C145.288 82.8706 145.916 83.3865 146.667 83.715C147.417 84.0435 148.217 84.2077 149.063 84.2077C149.783 84.2077 150.391 84.1129 150.884 83.9255C151.378 83.7381 151.786 83.4906 152.106 83.1875C152.425 82.8821 152.678 82.5467 152.856 82.1789C153.037 81.811 153.169 81.4432 153.255 81.0754C153.341 80.7075 153.392 80.3605 153.408 80.032C153.424 79.7035 153.431 79.4375 153.431 79.2339V77.7325H153.385C152.977 78.3895 152.425 78.9054 151.728 79.2802C151.03 79.6549 150.212 79.8423 149.274 79.8423C148.474 79.8423 147.723 79.6989 147.019 79.4074C146.314 79.1182 145.698 78.7203 145.174 78.2114C144.648 77.7024 144.233 77.1125 143.93 76.4393C143.624 75.7661 143.471 75.0466 143.471 74.2809C143.471 73.5152 143.624 72.7957 143.93 72.1225C144.236 71.4493 144.65 70.864 145.174 70.362C145.698 69.8623 146.314 69.4621 147.019 69.166C147.723 68.8699 148.476 68.7195 149.274 68.7195C150.214 68.7195 151.033 68.9069 151.728 69.2816C152.425 69.6564 152.977 70.1723 153.385 70.8293H153.431V68.9994H154.84V79.1321L154.845 79.146ZM153.482 74.2902C153.482 73.6956 153.368 73.1381 153.141 72.6129C152.914 72.0901 152.608 71.6367 152.226 71.2527C151.841 70.8686 151.387 70.5656 150.863 70.3389C150.337 70.1122 149.779 69.9988 149.183 69.9988C148.588 69.9988 148.027 70.1122 147.503 70.3389C146.977 70.5656 146.525 70.8709 146.14 71.2527C145.756 71.6367 145.45 72.0901 145.225 72.6129C144.998 73.1381 144.884 73.6956 144.884 74.2902C144.884 74.8847 144.998 75.4422 145.225 75.9674C145.452 76.4925 145.758 76.9459 146.14 77.3277C146.525 77.7117 146.977 78.0171 147.503 78.2438C148.027 78.4705 148.588 78.5838 149.183 78.5838C149.779 78.5838 150.337 78.4705 150.863 78.2438C151.387 78.0171 151.841 77.7117 152.226 77.3277C152.611 76.9459 152.914 76.4925 153.141 75.9674C153.368 75.4445 153.482 74.8847 153.482 74.2902Z" fill="white"/>
<path d="M158.298 62.1172H159.707V70.9127H159.753C160.036 70.3182 160.504 69.8069 161.162 69.3766C161.82 68.9463 162.587 68.7312 163.465 68.7312C164.344 68.7312 165 68.8654 165.533 69.1291C166.066 69.3951 166.485 69.7422 166.789 70.1724C167.094 70.6027 167.305 71.1001 167.424 71.6623C167.542 72.2244 167.6 72.8028 167.6 73.3973V79.8471H166.191V73.4667C166.191 73.0295 166.151 72.6015 166.073 72.1874C165.994 71.7733 165.857 71.4009 165.662 71.0724C165.465 70.7439 165.192 70.4824 164.84 70.2858C164.487 70.0892 164.029 69.992 163.465 69.992C162.949 69.992 162.46 70.0822 161.996 70.2627C161.535 70.4431 161.134 70.7161 160.798 71.0839C160.462 71.4518 160.196 71.9121 159.999 72.4673C159.802 73.0226 159.704 73.6749 159.704 74.4268V79.8448H158.295V62.1125L158.298 62.1172Z" fill="white"/>
<path d="M180.948 77.8089C180.399 78.6371 179.722 79.2316 178.916 79.5925C178.109 79.9511 177.219 80.1315 176.248 80.1315C175.419 80.1315 174.666 79.9904 173.994 79.7082C173.319 79.4259 172.74 79.0327 172.255 78.5237C171.769 78.0171 171.398 77.4133 171.138 76.7169C170.879 76.0206 170.751 75.2502 170.751 74.4059C170.751 73.5615 170.884 72.842 171.15 72.1549C171.417 71.4678 171.792 70.8687 172.279 70.3597C172.765 69.8508 173.335 69.4529 173.994 69.1637C174.652 68.8745 175.379 68.7288 176.179 68.7288C176.978 68.7288 177.741 68.8745 178.376 69.1637C179.011 69.4529 179.544 69.8369 179.975 70.3134C180.406 70.79 180.73 71.3336 180.95 71.9444C181.171 72.5551 181.279 73.1728 181.279 73.7974V74.7829H172.163C172.163 75.0791 172.221 75.4608 172.339 75.9211C172.457 76.3815 172.67 76.8326 172.985 77.2698C173.298 77.7071 173.718 78.0842 174.241 78.3965C174.765 78.7088 175.444 78.8661 176.274 78.8661C176.995 78.8661 177.692 78.6949 178.364 78.3502C179.036 78.0055 179.555 77.5382 179.915 76.9437L180.948 77.8112V77.8089ZM179.868 73.5175C179.868 73.0317 179.771 72.5783 179.574 72.1572C179.377 71.7362 179.113 71.3637 178.774 71.0422C178.438 70.7229 178.037 70.4684 177.576 70.2811C177.115 70.0937 176.624 69.9988 176.107 69.9988C175.34 69.9988 174.7 70.1561 174.193 70.4684C173.683 70.7807 173.28 71.1416 172.983 71.5465C172.687 71.9536 172.473 72.3492 172.348 72.731C172.223 73.115 172.16 73.3764 172.16 73.5175H179.868Z" fill="white"/>
<path d="M184.426 72.0625C184.426 71.8589 184.419 71.6137 184.403 71.3245C184.387 71.0353 184.375 70.7415 184.368 70.4454C184.359 70.1493 184.348 69.8717 184.334 69.6126C184.32 69.3535 184.311 69.1546 184.311 69.0134H185.72C185.736 69.4206 185.747 69.8116 185.754 70.1863C185.761 70.5611 185.782 70.804 185.812 70.9127C186.171 70.2719 186.635 69.7468 187.198 69.3419C187.761 68.9371 188.452 68.7312 189.265 68.7312C189.407 68.7312 189.543 68.7428 189.678 68.7659C189.81 68.789 189.949 68.8168 190.088 68.8492L189.923 70.2326C189.736 70.1701 189.555 70.1377 189.383 70.1377C188.772 70.1377 188.243 70.2349 187.798 70.4316C187.351 70.6282 186.983 70.8965 186.693 71.2412C186.403 71.5859 186.188 71.9885 186.046 72.4488C185.905 72.9092 185.835 73.4066 185.835 73.9387V79.8494H184.426V72.0625Z" fill="white"/>
<path d="M199.207 76.7772C199.615 77.4805 200.143 78.0056 200.792 78.348C201.441 78.6927 202.182 78.8639 203.012 78.8639C203.529 78.8639 204.013 78.7852 204.47 78.6302C204.924 78.4729 205.32 78.2554 205.656 77.9732C205.992 77.691 206.259 77.3509 206.456 76.953C206.653 76.5551 206.75 76.104 206.75 75.6043C206.75 75.0259 206.627 74.5494 206.386 74.1723C206.143 73.7975 205.818 73.4875 205.411 73.2469C205.003 73.0063 204.544 72.7981 204.036 72.6246C203.527 72.4534 203.003 72.2799 202.463 72.1087C201.923 71.9375 201.397 71.7409 200.889 71.5234C200.38 71.3037 199.923 71.0191 199.515 70.6675C199.107 70.3159 198.783 69.874 198.539 69.3419C198.296 68.8098 198.176 68.1528 198.176 67.3709C198.176 66.6352 198.319 65.9828 198.611 65.4114C198.901 64.84 199.293 64.3635 199.786 63.9794C200.28 63.5977 200.848 63.3062 201.49 63.1119C202.131 62.9176 202.806 62.8181 203.51 62.8181C204.419 62.8181 205.26 62.9777 206.036 63.2993C206.813 63.6209 207.482 64.1553 208.046 64.9048L206.706 65.8672C206.314 65.3189 205.856 64.9094 205.332 64.6364C204.806 64.3635 204.185 64.227 203.464 64.227C202.963 64.227 202.484 64.2941 202.03 64.4259C201.575 64.5578 201.179 64.7544 200.843 65.0112C200.507 65.2703 200.236 65.5942 200.032 65.9852C199.828 66.3761 199.726 66.8365 199.726 67.3686C199.726 68.1968 199.937 68.8353 200.361 69.2794C200.785 69.7236 201.313 70.0776 201.948 70.3344C202.583 70.5911 203.272 70.8202 204.016 71.0145C204.759 71.2111 205.448 71.4726 206.083 71.8011C206.718 72.1296 207.246 72.5876 207.67 73.1729C208.094 73.7582 208.305 74.5679 208.305 75.5997C208.305 76.3492 208.164 77.0155 207.881 77.5938C207.598 78.1722 207.218 78.6603 206.741 79.0605C206.263 79.4584 205.71 79.7592 205.084 79.9627C204.458 80.1663 203.807 80.2681 203.133 80.2681C202.036 80.2681 201.026 80.0761 200.101 79.6944C199.177 79.3127 198.387 78.6672 197.728 77.7604L199.209 76.7749L199.207 76.7772Z" fill="white"/>
<path d="M216.733 70.2788H213.633V77.3393C213.633 77.8251 213.765 78.1999 214.031 78.4659C214.298 78.732 214.666 78.8638 215.134 78.8638C215.401 78.8638 215.672 78.8291 215.946 78.7574C216.219 78.688 216.481 78.5978 216.733 78.4867L216.852 79.7545C216.585 79.8493 216.279 79.9349 215.936 80.0113C215.593 80.0876 215.285 80.1293 215.021 80.1293C214.52 80.1293 214.089 80.0552 213.728 79.9072C213.366 79.7591 213.077 79.5602 212.859 79.308C212.639 79.0582 212.479 78.7644 212.377 78.4289C212.275 78.0935 212.224 77.7303 212.224 77.3393V70.2788H209.874V69.011H212.224V65.8926H213.633V69.011H216.733V70.2788Z" fill="white"/>
<path d="M227.683 75.2989C227.683 75.831 227.688 76.3076 227.695 76.7309C227.702 77.1543 227.713 77.5453 227.73 77.9038C227.746 78.2647 227.764 78.6002 227.788 78.9125C227.811 79.2248 227.845 79.5371 227.894 79.8517H226.578C226.483 79.3196 226.436 78.7344 226.436 78.0935H226.39C225.982 78.7968 225.477 79.3127 224.875 79.6412C224.272 79.9697 223.507 80.134 222.583 80.134C222.112 80.134 221.651 80.0761 221.197 79.9581C220.743 79.8402 220.335 79.6528 219.976 79.396C219.616 79.1392 219.322 78.8061 219.095 78.3989C218.868 77.9918 218.754 77.499 218.754 76.9206C218.754 76.0924 218.965 75.4354 219.389 74.9496C219.813 74.4661 220.332 74.1006 220.951 73.86C221.57 73.6171 222.228 73.4621 222.926 73.3904C223.623 73.321 224.237 73.284 224.77 73.284H226.416V72.627C226.416 71.6877 226.126 71.0168 225.547 70.6097C224.967 70.2025 224.237 69.9989 223.361 69.9989C222.108 69.9989 221.004 70.4061 220.047 71.2181L219.225 70.2557C219.741 69.756 220.383 69.3766 221.15 69.1175C221.918 68.8584 222.654 68.7312 223.359 68.7312C224.675 68.7312 225.725 69.0412 226.508 69.6589C227.292 70.2765 227.683 71.2736 227.683 72.6501V75.3013V75.2989ZM224.863 74.4083C224.267 74.4083 223.693 74.4476 223.136 74.5263C222.58 74.6049 222.08 74.7368 221.632 74.9242C221.185 75.1116 220.828 75.3614 220.564 75.6737C220.298 75.986 220.166 76.377 220.166 76.8466C220.166 77.1751 220.24 77.4689 220.388 77.7257C220.536 77.9848 220.729 78.1953 220.963 78.3596C221.197 78.5238 221.459 78.6488 221.751 78.7344C222.04 78.8199 222.335 78.8639 222.631 78.8639C223.382 78.8639 224.001 78.7552 224.488 78.5354C224.974 78.3156 225.361 78.0311 225.651 77.6794C225.941 77.3278 226.14 76.9299 226.251 76.4834C226.36 76.0369 226.416 75.5881 226.416 75.1347V74.4083H224.865H224.863Z" fill="white"/>
<path d="M231.444 72.0625C231.444 71.8589 231.437 71.6137 231.421 71.3245C231.405 71.0353 231.393 70.7415 231.386 70.4454C231.377 70.1493 231.366 69.8717 231.352 69.6126C231.338 69.3535 231.328 69.1546 231.328 69.0134H232.737C232.754 69.4206 232.765 69.8116 232.772 70.1863C232.779 70.5611 232.8 70.804 232.83 70.9127H232.9C233.182 70.3182 233.651 69.8069 234.309 69.3766C234.967 68.9463 235.734 68.7312 236.612 68.7312C237.491 68.7312 238.146 68.8654 238.679 69.1291C239.212 69.3951 239.632 69.7422 239.935 70.1724C240.241 70.6027 240.452 71.1001 240.57 71.6623C240.689 72.2244 240.746 72.8028 240.746 73.3973V79.8471H239.337V73.4667C239.337 73.0295 239.298 72.6015 239.219 72.1874C239.141 71.7733 239.004 71.4009 238.809 71.0724C238.612 70.7439 238.339 70.4824 237.986 70.2858C237.634 70.0892 237.175 69.992 236.612 69.992C236.095 69.992 235.606 70.0822 235.143 70.2627C234.679 70.4431 234.281 70.7161 233.945 71.0839C233.609 71.4518 233.342 71.9121 233.145 72.4673C232.948 73.0226 232.851 73.6749 232.851 74.4268V79.8448H231.442V72.0579L231.444 72.0625Z" fill="white"/>
<path d="M254 77.9501H253.953C253.733 78.3249 253.46 78.6511 253.131 78.924C252.802 79.197 252.445 79.4237 252.062 79.6042C251.678 79.7846 251.275 79.9165 250.853 80.0021C250.429 80.0877 250.014 80.1316 249.608 80.1316C248.779 80.1316 248.009 79.9905 247.305 79.7083C246.6 79.4261 245.998 79.0328 245.495 78.5238C244.994 78.0172 244.603 77.4134 244.32 76.7171C244.037 76.0207 243.896 75.2596 243.896 74.4291C243.896 73.5986 244.037 72.8375 244.32 72.1411C244.603 71.4448 244.994 70.8433 245.495 70.3344C245.995 69.8254 246.598 69.4322 247.305 69.1499C248.009 68.8677 248.776 68.7266 249.608 68.7266C250.016 68.7266 250.431 68.7705 250.853 68.8561C251.277 68.9417 251.678 69.0759 252.062 69.254C252.447 69.4345 252.802 69.6612 253.131 69.9342C253.46 70.2071 253.733 70.5333 253.953 70.9081H254V62.1125H255.409V79.8448H254V77.9455V77.9501ZM254.141 74.4314C254.141 73.8207 254.023 73.247 253.789 72.7079C253.555 72.1689 253.233 71.6993 252.825 71.3014C252.417 70.9035 251.94 70.5865 251.393 70.3506C250.843 70.1169 250.25 69.9989 249.606 69.9989C248.962 69.9989 248.352 70.1169 247.819 70.3506C247.286 70.5842 246.832 70.9012 246.457 71.3014C246.081 71.7016 245.794 72.1689 245.599 72.7079C245.402 73.247 245.305 73.823 245.305 74.4314C245.305 75.0398 245.402 75.6159 245.599 76.1549C245.794 76.6939 246.081 77.1635 246.457 77.5614C246.832 77.9594 247.286 78.2763 247.819 78.5123C248.352 78.7459 248.948 78.8639 249.606 78.8639C250.264 78.8639 250.843 78.7459 251.393 78.5123C251.942 78.2786 252.419 77.9617 252.825 77.5614C253.23 77.1612 253.553 76.6939 253.789 76.1549C254.023 75.6159 254.141 75.0398 254.141 74.4314Z" fill="white"/>
<path d="M267.299 75.2989C267.299 75.831 267.304 76.3076 267.311 76.7309C267.318 77.1543 267.329 77.5453 267.346 77.9038C267.362 78.2647 267.38 78.6002 267.404 78.9125C267.427 79.2248 267.462 79.5371 267.51 79.8517H266.194C266.099 79.3196 266.053 78.7344 266.053 78.0935H266.006C265.598 78.7968 265.093 79.3127 264.491 79.6412C263.888 79.9697 263.123 80.134 262.199 80.134C261.728 80.134 261.267 80.0761 260.813 79.9581C260.359 79.8402 259.951 79.6528 259.592 79.396C259.232 79.1392 258.938 78.8061 258.711 78.3989C258.484 77.9918 258.37 77.499 258.37 76.9206C258.37 76.0924 258.581 75.4354 259.005 74.9496C259.429 74.4661 259.949 74.1006 260.567 73.86C261.186 73.6171 261.844 73.4621 262.542 73.3904C263.239 73.321 263.853 73.284 264.386 73.284H266.032V72.627C266.032 71.6877 265.742 71.0168 265.163 70.6097C264.583 70.2025 263.853 69.9989 262.977 69.9989C261.724 69.9989 260.621 70.4061 259.663 71.2181L258.841 70.2557C259.358 69.756 259.999 69.3766 260.767 69.1175C261.534 68.8584 262.271 68.7312 262.975 68.7312C264.291 68.7312 265.341 69.0412 266.124 69.6589C266.908 70.2765 267.299 71.2736 267.299 72.6501V75.3013V75.2989ZM264.479 74.4083C263.883 74.4083 263.309 74.4476 262.753 74.5263C262.196 74.6049 261.696 74.7368 261.249 74.9242C260.801 75.1116 260.444 75.3614 260.18 75.6737C259.914 75.986 259.782 76.377 259.782 76.8466C259.782 77.1751 259.856 77.4689 260.004 77.7257C260.152 77.9848 260.345 78.1953 260.579 78.3596C260.813 78.5238 261.075 78.6488 261.367 78.7344C261.656 78.8199 261.951 78.8639 262.247 78.8639C262.998 78.8639 263.617 78.7552 264.104 78.5354C264.59 78.3156 264.977 78.0311 265.267 77.6794C265.557 77.3278 265.756 76.9299 265.867 76.4834C265.976 76.0369 266.032 75.5881 266.032 75.1347V74.4083H264.481H264.479Z" fill="white"/>
<path d="M271.058 72.0625C271.058 71.8589 271.051 71.6137 271.035 71.3245C271.019 71.0353 271.007 70.7415 271 70.4454C270.991 70.1493 270.979 69.8717 270.966 69.6126C270.952 69.3535 270.942 69.1546 270.942 69.0134H272.351C272.368 69.4206 272.379 69.8116 272.386 70.1863C272.393 70.5611 272.414 70.804 272.444 70.9127C272.803 70.2719 273.267 69.7468 273.83 69.3419C274.393 68.9371 275.084 68.7312 275.897 68.7312C276.038 68.7312 276.175 68.7428 276.309 68.7659C276.442 68.789 276.581 68.8168 276.72 68.8492L276.555 70.2326C276.367 70.1701 276.187 70.1377 276.015 70.1377C275.403 70.1377 274.875 70.2349 274.43 70.4316C273.983 70.6282 273.614 70.8965 273.325 71.2412C273.035 71.5859 272.819 71.9885 272.678 72.4488C272.537 72.9092 272.467 73.4066 272.467 73.9387V79.8494H271.058V72.0625Z" fill="white"/>
<path d="M287.952 77.9501H287.906C287.686 78.3249 287.412 78.6511 287.083 78.924C286.754 79.197 286.397 79.4237 286.015 79.6042C285.63 79.7846 285.227 79.9165 284.805 80.0021C284.381 80.0877 283.966 80.1316 283.561 80.1316C282.731 80.1316 281.962 79.9905 281.257 79.7083C280.553 79.4261 279.95 79.0328 279.447 78.5238C278.947 78.0172 278.555 77.4134 278.272 76.7171C277.99 76.0207 277.848 75.2596 277.848 74.4291C277.848 73.5986 277.99 72.8375 278.272 72.1411C278.555 71.4448 278.947 70.8433 279.447 70.3344C279.948 69.8254 280.55 69.4322 281.257 69.1499C281.962 68.8677 282.729 68.7266 283.561 68.7266C283.968 68.7266 284.383 68.7705 284.805 68.8561C285.229 68.9417 285.63 69.0759 286.015 69.254C286.399 69.4345 286.754 69.6612 287.083 69.9342C287.412 70.2071 287.686 70.5333 287.906 70.9081H287.952V62.1125H289.361V79.8448H287.952V77.9455V77.9501ZM288.093 74.4314C288.093 73.8207 287.975 73.247 287.741 72.7079C287.507 72.1689 287.185 71.6993 286.777 71.3014C286.369 70.9035 285.892 70.5865 285.345 70.3506C284.796 70.1169 284.202 69.9989 283.558 69.9989C282.914 69.9989 282.305 70.1169 281.772 70.3506C281.239 70.5842 280.784 70.9012 280.409 71.3014C280.033 71.7016 279.746 72.1689 279.551 72.7079C279.354 73.247 279.257 73.823 279.257 74.4314C279.257 75.0398 279.354 75.6159 279.551 76.1549C279.746 76.6939 280.033 77.1635 280.409 77.5614C280.784 77.9594 281.239 78.2763 281.772 78.5123C282.305 78.7459 282.9 78.8639 283.558 78.8639C284.216 78.8639 284.796 78.7459 285.345 78.5123C285.894 78.2786 286.372 77.9617 286.777 77.5614C287.183 77.1612 287.505 76.6939 287.741 76.1549C287.975 75.6159 288.093 75.0398 288.093 74.4314Z" fill="white"/>
<path d="M298.316 74.4313C298.316 73.6031 298.457 72.8397 298.74 72.1433C299.022 71.447 299.414 70.8455 299.915 70.3366C300.415 69.8276 301.018 69.4344 301.724 69.1521C302.429 68.8699 303.196 68.7288 304.028 68.7288C304.86 68.7288 305.622 68.8699 306.32 69.1521C307.017 69.4344 307.62 69.8299 308.13 70.3366C308.64 70.8455 309.034 71.447 309.316 72.1433C309.599 72.8397 309.74 73.6008 309.74 74.4313C309.74 75.2618 309.599 76.0229 309.316 76.7193C309.034 77.4156 308.64 78.0171 308.13 78.526C307.62 79.035 307.017 79.4283 306.32 79.7105C305.622 79.9927 304.858 80.1338 304.028 80.1338C303.198 80.1338 302.429 79.9927 301.724 79.7105C301.02 79.4283 300.417 79.035 299.915 78.526C299.414 78.0194 299.022 77.4156 298.74 76.7193C298.457 76.0229 298.316 75.2618 298.316 74.4313ZM299.725 74.4313C299.725 75.042 299.822 75.6158 300.019 76.1548C300.214 76.6938 300.501 77.1634 300.876 77.5613C301.252 77.9592 301.706 78.2762 302.239 78.5121C302.772 78.7458 303.368 78.8638 304.026 78.8638C304.684 78.8638 305.279 78.7458 305.812 78.5121C306.345 78.2785 306.8 77.9616 307.175 77.5613C307.55 77.1611 307.838 76.6938 308.032 76.1548C308.227 75.6158 308.327 75.0397 308.327 74.4313C308.327 73.8229 308.229 73.2468 308.032 72.7078C307.835 72.1688 307.55 71.6992 307.175 71.3013C306.8 70.9034 306.345 70.5864 305.812 70.3505C305.279 70.1168 304.684 69.9988 304.026 69.9988C303.368 69.9988 302.772 70.1168 302.239 70.3505C301.706 70.5841 301.252 70.901 300.876 71.3013C300.501 71.7015 300.214 72.1688 300.019 72.7078C299.822 73.2468 299.725 73.8229 299.725 74.4313Z" fill="white"/>
<path d="M313.682 70.2788H311.427V69.011H313.682V65.4692C313.682 64.7659 313.789 64.1829 314 63.7226C314.211 63.2622 314.473 62.8897 314.788 62.6075C315.101 62.3253 315.451 62.1263 315.833 62.0083C316.218 61.8904 316.581 61.8325 316.924 61.8325C317.583 61.8325 318.122 61.9274 318.547 62.1148L318.264 63.3339C317.951 63.1789 317.527 63.1003 316.994 63.1003C315.724 63.1003 315.091 64.0626 315.091 65.9851V69.011H317.629V70.2788H315.091V79.8493H313.682V70.2788Z" fill="white"/>
<path d="M340.045 77.2444C339.246 78.3224 338.321 79.0974 337.274 79.567C336.224 80.0366 335.088 80.2703 333.867 80.2703C332.646 80.2703 331.436 80.0552 330.377 79.6249C329.32 79.1946 328.414 78.5931 327.663 77.8181C326.912 77.0431 326.324 76.1224 325.9 75.0489C325.476 73.9778 325.265 72.8096 325.265 71.5418C325.265 70.2741 325.476 69.1104 325.9 68.0463C326.324 66.9821 326.91 66.0637 327.663 65.291C328.414 64.516 329.32 63.9099 330.377 63.4727C331.434 63.0354 332.597 62.8157 333.867 62.8157C334.996 62.8157 336.048 63.0146 337.028 63.4148C338.008 63.8151 338.866 64.4813 339.6 65.4206L338.33 66.4755C337.814 65.6935 337.151 65.1221 336.344 64.7636C335.538 64.405 334.711 64.2245 333.865 64.2245C332.785 64.2245 331.809 64.4119 330.94 64.7867C330.071 65.1615 329.332 65.6774 328.72 66.3344C328.108 66.9914 327.64 67.764 327.311 68.657C326.982 69.5477 326.817 70.5101 326.817 71.5418C326.817 72.5736 326.982 73.536 327.311 74.4266C327.64 75.3173 328.111 76.0923 328.72 76.7493C329.332 77.4063 330.071 77.9222 330.94 78.297C331.809 78.6717 332.785 78.8591 333.865 78.8591C334.289 78.8591 334.727 78.8082 335.181 78.7064C335.635 78.6046 336.078 78.4473 336.509 78.2368C336.94 78.0263 337.35 77.7603 337.742 77.4387C338.133 77.1194 338.479 76.7308 338.775 76.2774L340.045 77.2397V77.2444Z" fill="white"/>
<path d="M350.925 75.2989C350.925 75.831 350.93 76.3076 350.937 76.7309C350.944 77.1543 350.956 77.5453 350.972 77.9038C350.988 78.2647 351.007 78.6002 351.03 78.9125C351.053 79.2248 351.088 79.5371 351.136 79.8517H349.82C349.725 79.3196 349.679 78.7344 349.679 78.0935H349.632C349.224 78.7968 348.719 79.3127 348.117 79.6412C347.514 79.9697 346.749 80.134 345.825 80.134C345.354 80.134 344.893 80.0761 344.439 79.9581C343.985 79.8402 343.577 79.6528 343.218 79.396C342.859 79.1392 342.564 78.8061 342.337 78.3989C342.11 77.9918 341.996 77.499 341.996 76.9206C341.996 76.0924 342.207 75.4354 342.631 74.9496C343.056 74.4661 343.575 74.1006 344.193 73.86C344.812 73.6171 345.47 73.4621 346.168 73.3904C346.865 73.321 347.479 73.284 348.012 73.284H349.658V72.627C349.658 71.6877 349.368 71.0168 348.789 70.6097C348.209 70.2025 347.479 69.9989 346.603 69.9989C345.35 69.9989 344.247 70.4061 343.29 71.2181L342.467 70.2557C342.984 69.756 343.626 69.3766 344.393 69.1175C345.16 68.8584 345.897 68.7312 346.601 68.7312C347.917 68.7312 348.967 69.0412 349.751 69.6589C350.534 70.2765 350.925 71.2736 350.925 72.6501V75.3013V75.2989ZM348.105 74.4083C347.51 74.4083 346.935 74.4476 346.379 74.5263C345.823 74.6049 345.322 74.7368 344.875 74.9242C344.427 75.1116 344.071 75.3614 343.806 75.6737C343.54 75.986 343.408 76.377 343.408 76.8466C343.408 77.1751 343.482 77.4689 343.63 77.7257C343.779 77.9848 343.971 78.1953 344.205 78.3596C344.439 78.5238 344.701 78.6488 344.993 78.7344C345.283 78.8199 345.577 78.8639 345.873 78.8639C346.624 78.8639 347.243 78.7552 347.73 78.5354C348.216 78.3156 348.603 78.0311 348.893 77.6794C349.183 77.3278 349.382 76.9299 349.493 76.4834C349.602 76.0369 349.658 75.5881 349.658 75.1347V74.4083H348.107H348.105Z" fill="white"/>
<path d="M354.684 72.0625C354.684 71.8589 354.677 71.6137 354.661 71.3245C354.645 71.0353 354.633 70.7415 354.626 70.4454C354.617 70.1493 354.605 69.8717 354.592 69.6126C354.575 69.3535 354.568 69.1546 354.568 69.0134H355.977C355.994 69.4206 356.005 69.8116 356.012 70.1863C356.019 70.5611 356.04 70.804 356.07 70.9127C356.429 70.2719 356.893 69.7468 357.456 69.3419C358.019 68.9348 358.71 68.7312 359.523 68.7312C359.664 68.7312 359.801 68.7428 359.935 68.7659C360.068 68.789 360.207 68.8168 360.346 68.8492L360.181 70.2326C359.993 70.1701 359.813 70.1377 359.641 70.1377C359.029 70.1377 358.501 70.2349 358.056 70.4316C357.609 70.6282 357.24 70.8965 356.951 71.2412C356.661 71.5859 356.445 71.9885 356.304 72.4488C356.163 72.9092 356.093 73.4066 356.093 73.9387V79.8494H354.684V72.0625Z" fill="white"/>
<path d="M371.671 77.8089C371.122 78.6371 370.445 79.2316 369.639 79.5925C368.832 79.9511 367.942 80.1315 366.971 80.1315C366.142 80.1315 365.388 79.9904 364.716 79.7082C364.042 79.4259 363.463 79.0327 362.978 78.5237C362.492 78.0171 362.121 77.4133 361.861 76.7169C361.604 76.0206 361.474 75.2502 361.474 74.4059C361.474 73.5615 361.606 72.842 361.873 72.1549C362.139 71.4678 362.515 70.8687 363.001 70.3597C363.486 69.8508 364.058 69.4529 364.716 69.1637C365.374 68.8745 366.102 68.7288 366.902 68.7288C367.701 68.7288 368.464 68.8745 369.099 69.1637C369.734 69.4529 370.264 69.8369 370.698 70.3134C371.129 70.79 371.453 71.3336 371.673 71.9444C371.893 72.5551 372.002 73.1728 372.002 73.7974V74.7829H362.886C362.886 75.0791 362.944 75.4608 363.062 75.9211C363.18 76.3815 363.395 76.8326 363.708 77.2698C364.021 77.7071 364.441 78.0842 364.967 78.3965C365.49 78.7088 366.169 78.8661 366.999 78.8661C367.72 78.8661 368.417 78.6949 369.089 78.3502C369.764 78.0055 370.28 77.5382 370.64 76.9437L371.673 77.8112L371.671 77.8089ZM370.591 73.5175C370.591 73.0317 370.494 72.5783 370.297 72.1572C370.1 71.7339 369.833 71.3637 369.497 71.0422C369.159 70.7229 368.76 70.4684 368.299 70.2811C367.836 70.0937 367.347 69.9988 366.83 69.9988C366.063 69.9988 365.423 70.1561 364.916 70.4684C364.406 70.7807 364.003 71.1416 363.706 71.5465C363.409 71.9536 363.196 72.3492 363.071 72.731C362.946 73.115 362.883 73.3764 362.883 73.5175H370.591Z" fill="white"/>
<path d="M118.39 37.3962H105.465L102.103 44.7158H97.1946L112.133 12.6868L126.542 44.7158H121.558L118.39 37.3962ZM116.531 33.1211L112.054 22.875L107.361 33.1211H116.531Z" fill="white"/>
<path d="M150.833 18.8543H138.628V26.0952H150.463V30.3704H138.628V44.7158H134.072V14.5791H150.833V18.8543Z" fill="white"/>
<path d="M161.181 44.7158V14.5791H167.516C170.554 14.5791 172.951 14.8775 174.712 15.4767C176.601 16.062 178.315 17.0568 179.854 18.4633C182.969 21.2995 184.526 25.0287 184.526 29.6463C184.526 34.2638 182.904 38.0254 179.657 40.8894C178.028 42.3214 176.32 43.3162 174.536 43.876C172.867 44.4359 170.501 44.7158 167.438 44.7158H161.181ZM165.737 40.4406H167.79C169.836 40.4406 171.537 40.2255 172.893 39.7975C174.248 39.3418 175.474 38.62 176.568 37.6322C178.809 35.5894 179.931 32.929 179.931 29.6486C179.931 26.3682 178.823 23.6638 176.608 21.6072C174.612 19.7727 171.674 18.8543 167.79 18.8543H165.737V40.4406Z" fill="white"/>
<path d="M192.547 42.5365C192.547 41.8194 192.809 41.1971 193.335 40.6719C193.861 40.1468 194.489 39.8831 195.221 39.8831C195.953 39.8831 196.581 40.1468 197.107 40.6719C197.633 41.1971 197.895 41.824 197.895 42.555C197.895 43.2861 197.631 43.9315 197.107 44.4567C196.593 44.9679 195.965 45.2247 195.221 45.2247C194.477 45.2247 193.828 44.9679 193.316 44.4567C192.802 43.9454 192.547 43.3046 192.547 42.5342V42.5365Z" fill="white"/>
<path d="M72.6995 45.2063H59.2052V31.7354H49.9286V45.2063H36.432V54.4668H49.9286V67.9401H59.2052V54.4668H72.6995V45.2063Z" fill="white"/>
<path d="M287.813 32.8549C287.658 32.7508 287.398 32.649 287.192 32.804C286.986 32.959 286.777 33.1649 286.622 33.3731C285.69 34.3539 282.587 36.6789 281.396 37.1948C280.62 37.5557 280.205 37.2989 280.05 36.4707C279.946 36.0566 279.946 35.5939 279.946 35.1289C279.895 34.3031 279.946 33.4772 279.946 32.5981C279.946 32.184 279.997 31.7213 279.895 31.2563C279.739 30.2754 278.859 29.9145 278.031 30.4813C277.515 30.8422 277.049 31.2563 276.634 31.7213C275.756 32.6513 275.03 33.7363 274.358 34.8722C273.014 36.9889 271.823 39.263 270.736 41.5347C270.477 41.9997 270.375 42.6197 269.703 43.0847C269.652 42.7747 269.598 42.6197 269.598 42.4138C269.598 41.9997 269.598 41.5371 269.649 41.0721C270.011 37.3544 270.838 33.7386 271.925 30.1759C272.235 29.1442 272.65 28.2142 273.218 27.2842C274.129 25.9031 274.963 24.4919 275.753 23.0576L276.425 22.9975C276.891 22.9466 277.306 22.8934 277.772 22.7916C277.978 22.7407 278.082 22.4816 278.082 22.2757C278.031 22.0166 277.927 21.7598 277.668 21.7598C277.267 21.7598 276.866 21.7413 276.465 21.739C277.723 19.3515 278.87 16.9063 279.996 14.4263C280.203 13.9104 280.411 13.3945 280.567 12.8763C280.671 12.6172 280.671 12.3072 280.671 12.0504C280.671 11.7936 280.256 11.5345 279.999 11.6895C279.793 11.7936 279.533 11.9486 279.327 12.1545C278.861 12.7745 278.344 13.3945 277.929 14.0654C276.372 16.6379 274.94 19.2659 273.686 21.9726C271.278 22.1947 268.611 22.4029 266.393 22.6389C266.032 22.6898 265.617 22.743 265.151 22.588C265.151 22.0189 265.357 21.7112 265.513 21.348C266.185 19.953 266.859 18.6112 267.427 17.2163C268.203 15.5113 266.91 15.2013 266.134 16.6472C265.617 17.473 265.151 18.2989 264.685 19.1271L263.288 22.2271C263.028 22.7962 262.667 23.053 261.995 23.1039C260.185 23.3098 258.322 23.518 256.459 23.7748C256.215 23.8233 255.983 23.8719 255.759 23.9274C256.593 22.4099 257.395 20.8761 258.166 19.333C258.581 18.403 258.994 17.4731 259.355 16.5431C259.562 16.0781 259.666 15.5622 259.77 15.0972C259.821 14.6831 259.77 14.2713 259.304 14.0654C258.89 13.8595 258.528 14.0145 258.217 14.2713C257.907 14.5813 257.545 14.8913 257.286 15.2522C256.82 15.9231 256.303 16.6472 255.888 17.3689C253.404 21.3966 251.645 25.7874 250.197 30.3309C249.914 31.3627 249.587 32.3945 248.948 33.2713C248.848 33.3569 248.753 33.4448 248.647 33.5327C247.766 34.2568 246.992 35.0295 246.111 35.7536C245.49 36.2694 244.818 36.7344 244.197 37.1485C243.731 37.4076 243.266 37.6135 242.8 37.8194C242.489 37.9744 242.283 37.7685 242.283 37.4053C242.283 36.4244 242.542 35.5454 242.8 34.6177C243.317 32.8109 244.042 31.1059 244.869 29.4518C245.075 28.9869 245.335 28.5219 245.541 28.0569C245.697 27.5919 245.592 27.231 245.282 27.0251C244.867 26.8192 244.61 27.0251 244.35 27.2842C244.091 27.5942 243.833 28.0083 243.574 28.3692C242.953 29.1951 242.383 30.0209 241.764 30.7959C241.402 31.2609 241.298 31.3118 240.832 30.9509C239.694 30.0209 238.503 30.28 237.574 31.0018C237.263 31.2077 237.004 31.4159 236.798 31.6727C236.211 32.2395 235.722 32.8664 235.303 33.5304C235.215 33.616 235.127 33.7039 235.039 33.7895C233.797 34.9254 232.608 36.1144 231.366 37.2503C230.228 38.2821 228.986 39.1612 227.642 39.8853C226.916 40.2462 226.193 40.5562 225.417 40.7112C224.485 40.8662 223.864 40.4521 223.658 39.5244C223.452 38.9553 223.347 38.3376 223.503 37.7176C223.554 37.5117 223.658 37.3035 223.917 37.2526C226.038 36.9935 227.435 35.5477 228.779 34.1018C229.451 33.38 229.917 32.45 230.073 31.4159C230.177 30.125 229.4 29.3501 228.107 29.556C227.074 29.711 226.244 30.2777 225.468 31.0018C224.645 31.7953 223.992 32.6906 223.466 33.6646C222.298 34.7519 219.621 36.7275 218.536 37.1971C217.76 37.558 217.345 37.3012 217.19 36.473C217.086 36.0589 217.086 35.5962 217.086 35.1313C217.035 34.3054 217.086 33.4795 217.086 32.6004C217.086 32.1863 217.137 31.7236 217.035 31.2586C216.879 30.2777 215.999 29.9168 215.172 30.4836C214.655 30.8445 214.189 31.2586 213.774 31.7236C212.896 32.6536 212.171 33.7386 211.498 34.8745C210.154 36.9912 208.963 39.2653 207.876 41.5371C207.617 42.0021 207.515 42.622 206.843 43.087C206.792 42.777 206.739 42.622 206.739 42.4162C206.739 42.0021 206.739 41.5394 206.789 41.0744C207.151 37.3567 207.978 33.7409 209.065 30.1783C209.376 29.1465 209.791 28.2165 210.358 27.2865C213.049 23.2057 215.118 18.868 217.137 14.4263C217.343 13.9104 217.552 13.3945 217.707 12.8763C217.811 12.6172 217.811 12.3072 217.811 12.0504C217.811 11.7936 217.396 11.5345 217.139 11.6895C216.933 11.7936 216.673 11.9486 216.467 12.1545C216.001 12.7745 215.484 13.3945 215.07 14.0654C212.379 18.5071 210.05 23.1039 208.395 28.0106C207.981 29.0956 207.672 30.1806 206.998 31.1082C206.843 31.3673 206.583 31.7282 206.739 32.0382C207.1 32.76 206.789 33.38 206.634 34C206.428 35.3418 206.064 36.635 205.858 37.9767C205.547 39.9385 205.288 41.9026 205.392 43.8643C205.392 44.3293 205.443 44.7943 205.547 45.2061C205.754 45.877 206.479 46.0829 206.996 45.6202C207.357 45.3102 207.617 44.9493 207.823 44.5352C208.238 43.8111 208.65 43.0385 209.014 42.3144C210.048 40.0935 211.135 37.9767 212.428 35.9109C213.1 34.775 213.825 33.69 214.703 32.7091C214.859 32.5032 215.065 32.3482 215.325 32.1932C215.48 32.0382 215.686 32.1932 215.686 32.3482C215.737 32.8132 215.737 33.2273 215.737 33.69C215.686 34.775 215.686 35.86 215.892 36.8918C216.254 38.4926 217.392 39.1126 218.944 38.4926C219.707 38.1873 221.134 37.2203 222.388 36.2741C222.21 36.9218 222.054 37.6158 222.098 38.3885C222.047 38.9576 222.203 39.5753 222.409 40.1444C222.77 41.3844 223.753 42.0553 225.046 42.0553C225.978 42.0553 226.856 41.7453 227.686 41.3844C228.979 40.7644 230.221 39.9385 231.359 39.0085C232.218 38.3168 233.032 37.5881 233.824 36.8409C233.736 37.13 233.658 37.4215 233.583 37.7176C233.532 37.9767 233.532 38.2867 233.532 38.5435C233.637 39.5776 234.413 40.0935 235.291 39.6285C235.808 39.3694 236.274 39.0085 236.689 38.6476C237.982 37.5117 239.173 36.1677 240.311 34.8259C240.621 34.465 240.828 34 241.604 33.7409C241.398 34.5159 241.242 35.0827 241.138 35.7027C241.034 36.4244 240.932 37.1485 240.932 37.8726C240.932 39.0594 241.553 39.5244 242.691 39.3185C243.416 39.1635 244.088 38.8026 244.709 38.3885C246.211 37.4817 247.562 36.362 248.855 35.1474C248.841 35.4574 248.749 35.7674 248.693 36.0636C248.227 38.2844 247.866 40.5053 247.812 43.087C247.812 43.4479 247.812 44.1211 247.863 44.792C247.914 45.0511 248.019 45.3611 248.123 45.6179C248.64 47.0638 249.622 47.3738 250.813 46.3929C251.59 45.7729 252.211 45.0511 252.779 44.327C254.565 41.9905 256.456 39.3116 258.28 36.8802C258.011 38.0091 257.775 39.1473 257.589 40.2994C257.383 41.7962 257.124 43.2952 257.124 44.8452C257.124 45.5161 257.175 46.187 257.434 46.807C257.849 47.7879 258.623 48.1488 259.608 47.6861C260.178 47.427 260.695 47.0661 261.056 46.5502C263.742 43.4549 266.824 38.9461 269.116 35.9132C268.968 36.5956 268.82 37.2804 268.713 37.9767C268.403 39.9385 268.143 41.9026 268.247 43.8643C268.247 44.3293 268.298 44.7943 268.402 45.2061C268.609 45.877 269.334 46.0829 269.851 45.6202C270.212 45.3102 270.472 44.9493 270.678 44.5352C271.093 43.8111 271.506 43.0385 271.869 42.3144C272.903 40.0935 273.99 37.9767 275.283 35.9109C275.955 34.775 276.68 33.69 277.559 32.7091C277.714 32.5032 277.92 32.3482 278.18 32.1932C278.335 32.0382 278.541 32.1932 278.541 32.3482C278.592 32.8132 278.592 33.2273 278.592 33.69C278.541 34.775 278.541 35.86 278.747 36.8918C279.109 38.4926 280.247 39.1126 281.799 38.4926C283.093 37.9767 286.3 35.55 287.336 34.5668C287.646 34.2568 287.957 33.8959 288.059 33.4818C288.11 33.2227 288.008 33.0168 287.799 32.8618L287.813 32.8549ZM213.73 19.1688C213.679 19.2729 213.679 19.4279 213.575 19.5829L213.73 19.1688ZM213.42 19.8397L213.109 20.0988C213.213 19.9947 213.315 19.8929 213.42 19.8397ZM213.005 20.2006C213.056 20.5105 212.901 20.7696 212.694 21.0264V21.0773H212.643C212.903 20.8182 212.954 20.5082 213.005 20.2006ZM227.285 31.3049C227.544 31.1499 227.906 30.9949 228.216 30.944C228.423 30.8931 228.629 30.9949 228.682 31.3581C228.682 31.7722 228.476 32.1331 228.216 32.5449C227.389 33.9907 226.043 34.9207 224.594 35.6957C224.543 35.7466 224.388 35.6957 224.284 35.6448C224.233 35.6448 224.179 35.4898 224.179 35.3857C224.298 35.0688 224.437 34.7611 224.583 34.4604C224.858 34.1735 225.12 33.845 225.213 33.4749C225.22 33.4355 225.22 33.3985 225.22 33.3615C225.764 32.5611 226.439 31.8578 227.282 31.3072L227.285 31.3049ZM240.271 32.6999C240.22 32.804 240.167 32.9058 240.065 32.959C238.721 34.6639 237.27 36.3666 235.616 37.7616C235.511 37.8657 235.356 37.9675 235.15 37.9166C235.15 37.8657 235.046 37.8125 235.046 37.8125C235.296 36.5031 235.757 35.3094 236.443 34.2498C236.478 34.2151 236.513 34.1804 236.545 34.1457C236.7 33.9907 236.856 33.8357 236.96 33.6299C236.99 33.5697 237.009 33.5119 237.02 33.4563C237.342 33.0608 237.699 32.6883 238.098 32.339C238.304 32.1331 238.614 31.9249 238.925 31.8231C239.287 31.6681 239.701 31.719 240.063 31.9781C240.269 32.1331 240.373 32.3922 240.269 32.6999H240.271ZM276.588 19.1688C276.537 19.2729 276.537 19.4279 276.432 19.5829L276.588 19.1688ZM276.277 19.8397L275.967 20.0988C276.071 19.9947 276.173 19.8929 276.277 19.8397ZM275.862 20.2006C275.913 20.5105 275.758 20.7696 275.552 21.0264V21.0773H275.501C275.76 20.8182 275.811 20.5082 275.862 20.2006ZM253.773 24.5914C254.755 22.0605 255.946 19.6847 257.341 17.362C257.548 17.1029 257.756 16.7929 258.169 17.052C258.135 16.9826 258.118 16.9309 258.118 16.897C258.118 16.9479 258.169 17.0011 258.169 17.0011V17.052L256.771 19.842C255.738 21.8037 254.753 23.7146 253.77 25.6787C253.77 25.6278 253.719 25.6278 253.719 25.6787C253.564 25.3178 253.615 24.9569 253.77 24.5937L253.773 24.5914ZM258.843 33.8357C256.567 36.9866 253.877 40.7042 251.497 43.751C251.082 44.3201 250.565 44.7828 250.1 45.2478C249.789 45.5069 249.428 45.3519 249.323 44.9378C249.013 43.9037 249.117 42.821 249.219 41.7869C249.479 38.6361 250.046 35.5384 250.927 32.4917C251.186 31.6658 251.548 30.9417 252.014 30.2199C253.119 28.5149 254.162 26.7729 255.156 25.0078C255.763 25.1003 256.373 25.0032 256.98 24.9014C258.377 24.7464 259.775 24.5405 261.17 24.3855C262.152 24.2814 262.308 24.4896 261.997 25.4173C261.687 26.2941 261.325 27.1731 261.015 28.1031C260.405 29.7734 259.828 31.4553 259.309 33.151C259.142 33.3569 258.989 33.5766 258.841 33.8357H258.843ZM260.757 44.8869C260.241 45.5069 259.826 46.2286 258.947 46.3327C258.171 45.7128 258.431 44.7828 258.482 44.0078C258.637 42.2519 258.843 40.5469 259.258 38.8443C259.983 35.6425 262.57 27.7931 263.812 25.0032C264.122 24.2814 264.537 24.0223 265.311 23.9714L273.095 23.2843C272.421 24.8274 271.802 26.3958 271.26 27.999C270.845 29.084 270.537 30.169 269.862 31.0967C269.707 31.3558 269.448 31.7167 269.603 32.0267C269.774 32.3667 269.793 32.6837 269.751 32.989C269.422 33.2111 269.216 33.5234 268.982 33.8334C267.482 35.3834 263.395 41.6319 260.755 44.8846L260.757 44.8869Z" fill="white"/>
<path d="M35.6951 58.7627C33.1459 58.7627 30.5945 58.4874 28.1148 57.9461L27.1438 57.7333L15.865 65.4554V52.5536L14.9821 51.8665C8.37976 46.7238 4.59311 39.3649 4.59311 31.6728C4.59311 16.7352 18.5462 4.58285 35.6951 4.58285C52.8439 4.58285 66.797 16.7352 66.797 31.6728C66.797 34.4396 66.315 37.1116 65.4274 39.6263H70.25C70.9939 37.0838 71.3901 34.4188 71.3901 31.6728C71.3901 14.2089 55.3768 0 35.6951 0C16.0133 0 0 14.2089 0 31.6751C0 40.4337 4.09255 48.792 11.2719 54.7698V74.1608L28.1171 62.6284C30.6084 63.1073 33.1529 63.3479 35.6951 63.3479C39.1341 63.3479 42.4573 62.9061 45.6043 62.0964V57.3446C42.4897 58.2584 39.1596 58.7627 35.6951 58.7627Z" fill="white"/>
<path d="M76.8106 25.7158V31.9944C81.0932 36.6374 83.6655 42.5273 83.6655 48.9331C83.6655 57.6755 78.7642 65.932 70.5559 71.0169L69.4713 71.6901V82.2993L59.3605 75.3776L58.4474 75.5303C56.4938 75.8565 54.5148 76.0231 52.5635 76.0231C45.7017 76.0231 39.3543 74.0729 34.205 70.7832H26.7568C33.2618 76.8305 42.4225 80.6082 52.5635 80.6082C54.4592 80.6082 56.378 80.4694 58.2783 80.1965L74.0621 91.0024V74.214C82.9749 68.2385 88.2563 58.8761 88.2563 48.9331C88.2563 39.7697 83.8439 31.5063 76.8083 25.7181L76.8106 25.7158Z" fill="white"/>
</g>
<defs>
<clipPath id="clip0_1008_644">
<rect width="372" height="91" fill="white"/>
</clipPath>
</defs>
</svg>
