<svg width="16" height="20" viewBox="0 0 16 20" fill="none" xmlns="http://www.w3.org/2000/svg">
<path fill-rule="evenodd" clip-rule="evenodd" d="M7.99996 0.833328C5.46866 0.833328 3.41663 2.88536 3.41663 5.41666C3.41663 7.94796 5.46866 9.99999 7.99996 9.99999C10.5312 9.99999 12.5833 7.94796 12.5833 5.41666C12.5833 2.88536 10.5312 0.833328 7.99996 0.833328ZM5.24996 5.41666C5.24996 3.89788 6.48113 2.66666 7.99996 2.66666C9.51878 2.66666 10.75 3.89788 10.75 5.41666C10.75 6.93544 9.51878 8.16666 7.99996 8.16666C6.48113 8.16666 5.24996 6.93544 5.24996 5.41666Z" fill="#343A40"/>
<path d="M3.30542 14.4721C3.82114 13.9564 4.52061 13.6667 5.24996 13.6667H10.75C11.4793 13.6667 12.1788 13.9564 12.6945 14.4721C13.2102 14.9879 13.5 15.6874 13.5 16.4167V19.1667H15.3333V16.4167C15.3333 15.2011 14.8504 14.0353 13.9908 13.1758C13.1314 12.3162 11.9656 11.8333 10.75 11.8333H5.24996C4.03439 11.8333 2.8686 12.3162 2.00906 13.1758C1.14951 14.0353 0.666626 15.2011 0.666626 16.4167V19.1667H2.49996V16.4167C2.49996 15.6873 2.78969 14.9879 3.30542 14.4721Z" fill="#343A40"/>
</svg>
